<svg xmlns="http://www.w3.org/2000/svg" xmlns:xlink="http://www.w3.org/1999/xlink" width="108" height="108" viewBox="0 0 108 108">
  <defs>
    <filter id="Trazado_904820" x="0" y="0" width="108" height="108" filterUnits="userSpaceOnUse">
      <feOffset dy="3" input="SourceAlpha"/>
      <feGaussianBlur stdDeviation="3" result="blur"/>
      <feFlood flood-opacity="0.161"/>
      <feComposite operator="in" in2="blur"/>
      <feComposite in="SourceGraphic"/>
    </filter>
  </defs>
  <g id="Grupo_1202748" data-name="Grupo 1202748" transform="translate(9 6)">
    <g id="Grupo_1178464" data-name="Grupo 1178464" transform="translate(0 0)">
      <g id="Grupo_1173585" data-name="Grupo 1173585">
        <g id="Grupo_1173428" data-name="Grupo 1173428">
          <g id="Grupo_1171958" data-name="Grupo 1171958">
            <g id="Grupo_1167341" data-name="Grupo 1167341">
              <g id="Grupo_1166792" data-name="Grupo 1166792">
                <g transform="matrix(1, 0, 0, 1, -9, -6)" filter="url(#Trazado_904820)">
                  <g id="Trazado_904820-2" data-name="Trazado 904820" transform="translate(9 6)" fill="#e5ebfb">
                    <path d="M 44.99999618530273 88.49996185302734 C 39.12687301635742 88.49996185302734 33.43022155761719 87.35003662109375 28.06829643249512 85.08213806152344 C 22.88852119445801 82.89127349853516 18.23629570007324 79.75456237792969 14.24084663391113 75.75910949707031 C 10.24540901184082 71.76365661621094 7.108683586120605 67.1114501953125 4.917821407318115 61.93167114257812 C 2.649921178817749 56.56974792480469 1.499996185302734 50.87310791015625 1.499996185302734 44.99998474121094 C 1.499996185302734 39.12686157226562 2.649921178817749 33.43022155761719 4.917821407318115 28.06829643249512 C 7.108683586120605 22.88852310180664 10.24540901184082 18.23630905151367 14.24084663391113 14.24085998535156 C 18.23629570007324 10.24540996551514 22.88852119445801 7.108697414398193 28.06829643249512 4.917834758758545 C 33.43022155761719 2.649934768676758 39.12687301635742 1.500009775161743 44.99999618530273 1.500009775161743 C 50.87311935424805 1.500009775161743 56.56977081298828 2.649934768676758 61.93169784545898 4.917834758758545 C 67.11147308349609 7.108697414398193 71.76369476318359 10.24540996551514 75.75914764404297 14.24085998535156 C 79.75458526611328 18.23630905151367 82.89131164550781 22.88852310180664 85.08216857910156 28.06829643249512 C 87.35007476806641 33.43022155761719 88.5 39.12686157226562 88.5 44.99998474121094 C 88.5 50.87310791015625 87.35007476806641 56.56974792480469 85.08216857910156 61.93167114257812 C 82.89131164550781 67.1114501953125 79.75458526611328 71.76365661621094 75.75914764404297 75.75910949707031 C 71.76369476318359 79.75456237792969 67.11147308349609 82.89127349853516 61.93169784545898 85.08213806152344 C 56.56977081298828 87.35003662109375 50.87311935424805 88.49996185302734 44.99999618530273 88.49996185302734 Z" stroke="none"/>
                    <path d="M 44.99999618530273 3 C 39.32870864868164 3 33.82865142822266 4.110054016113281 28.65262603759766 6.299339294433594 C 23.65165710449219 8.414573669433594 19.15968322753906 11.44334411621094 15.301513671875 15.301513671875 C 11.44333648681641 19.15968322753906 8.414566040039062 23.65164184570312 6.299339294433594 28.65261459350586 C 4.110054016113281 33.82865524291992 2.999992370605469 39.32869720458984 2.999992370605469 44.99998474121094 C 2.999992370605469 50.67127227783203 4.110054016113281 56.17131423950195 6.299339294433594 61.34734344482422 C 8.414566040039062 66.34831237792969 11.44333648681641 70.84027099609375 15.301513671875 74.69845581054688 C 19.15968322753906 78.55662536621094 23.65165710449219 81.58538818359375 28.65262603759766 83.70063018798828 C 33.82865142822266 85.88990020751953 39.32870864868164 86.99995422363281 44.99999618530273 86.99995422363281 C 50.67128372192383 86.99995422363281 56.17134094238281 85.88990020751953 61.34736633300781 83.70063018798828 C 66.34834289550781 81.58538818359375 70.84030914306641 78.55662536621094 74.69847869873047 74.69845581054688 C 78.55665588378906 70.84027099609375 81.58542633056641 66.34831237792969 83.70065307617188 61.34734344482422 C 85.88993835449219 56.17131423950195 87 50.67127227783203 87 44.99998474121094 C 87 39.32869720458984 85.88993835449219 33.82865524291992 83.70065307617188 28.65261459350586 C 81.58542633056641 23.65164184570312 78.55665588378906 19.15968322753906 74.69847869873047 15.301513671875 C 70.84030914306641 11.44334411621094 66.34834289550781 8.414573669433594 61.34736633300781 6.299339294433594 C 56.17134094238281 4.110054016113281 50.67128372192383 3 44.99999618530273 3 M 44.99999618530273 0 C 69.85281372070312 0 90 20.14718627929688 90 44.99998474121094 C 90 69.852783203125 69.85281372070312 89.99995422363281 44.99999618530273 89.99995422363281 C 20.14717864990234 89.99995422363281 -7.62939453125e-06 69.852783203125 -7.62939453125e-06 44.99998474121094 C -7.62939453125e-06 20.14718627929688 20.14717864990234 0 44.99999618530273 0 Z" stroke="none" fill="#0b47db"/>
                  </g>
                </g>
              </g>
            </g>
          </g>
        </g>
      </g>
    </g>
    <g id="programmer_307966" transform="translate(11.933 15.354)">
      <path id="Trazado_1048939" data-name="Trazado 1048939" d="M37.077,193.166H15.311a2.466,2.466,0,0,1-2.465-2.467V172.96a2.465,2.465,0,0,1,2.465-2.465H31.952l3.966,17.546Z" transform="translate(-7.938 -150.751)" fill="#666"/>
      <path id="Trazado_1048940" data-name="Trazado 1048940" d="M27.87,170.494l-11.2,22.671H15.311a2.466,2.466,0,0,1-2.465-2.467V172.959a2.465,2.465,0,0,1,2.465-2.465H27.87Z" transform="translate(-7.938 -150.75)" fill="#999"/>
      <path id="Trazado_1048941" data-name="Trazado 1048941" d="M37.077,327.131H15.311a2.466,2.466,0,0,1-2.465-2.467v-2.658H35.919Z" transform="translate(-7.938 -284.716)" fill="#ccc"/>
      <path id="Trazado_1048942" data-name="Trazado 1048942" d="M19.2,322.006l-2.533,5.125H15.311a2.466,2.466,0,0,1-2.465-2.467v-2.658Z" transform="translate(-7.938 -284.716)" fill="#e6e6e6"/>
      <g id="Grupo_1202849" data-name="Grupo 1202849" transform="translate(17.369 20.007)">
        <path id="Trazado_1048943" data-name="Trazado 1048943" d="M123.452,179.053a3.147,3.147,0,0,1,.143-6.29,3.068,3.068,0,0,1,.461.034Z" transform="translate(-120.449 -172.763)" fill="#e0b394"/>
        <path id="Trazado_1048944" data-name="Trazado 1048944" d="M387.287,179.053a3.147,3.147,0,0,0-.143-6.29,3.248,3.248,0,0,0-.461.034Z" transform="translate(-355.851 -172.763)" fill="#e0b394"/>
      </g>
      <path id="Trazado_1048945" data-name="Trazado 1048945" d="M163.265,325.521H150.546a8.341,8.341,0,0,0-8.341,8.341v12.243h29.4V333.862A8.341,8.341,0,0,0,163.265,325.521Z" transform="translate(-122.317 -287.824)" fill="#90bc42"/>
      <path id="Trazado_1048946" data-name="Trazado 1048946" d="M155.684,325.521h-5.139a8.341,8.341,0,0,0-8.341,8.341v12.243h5.139V333.862A8.341,8.341,0,0,1,155.684,325.521Z" transform="translate(-122.316 -287.824)" fill="#87aa3c"/>
      <path id="Trazado_1048947" data-name="Trazado 1048947" d="M223.987,267.958v8.689a6.806,6.806,0,0,1-13.612,0v-8.689Z" transform="translate(-182.592 -236.927)" fill="#e0b394"/>
      <path id="Trazado_1048948" data-name="Trazado 1048948" d="M155.439,75.273,149.9,71.251a10.208,10.208,0,0,1-4.16-9.24l.96-9.937a13.35,13.35,0,0,1,13.288-12.066h0a13.35,13.35,0,0,1,13.288,12.066l.96,9.937a10.207,10.207,0,0,1-4.16,9.24l-5.536,4.022A7.745,7.745,0,0,1,155.439,75.273Z" transform="translate(-125.403 -35.376)" fill="#f7cba4"/>
      <path id="Trazado_1048949" data-name="Trazado 1048949" d="M149.2,63.994a6.162,6.162,0,0,0,1.434,4.329l5.786,7.11a4.612,4.612,0,0,0,1.016.9,7.694,7.694,0,0,1-1.984-1.04l-5.536-4.022a10.207,10.207,0,0,1-4.159-9.24l.959-9.937A13.347,13.347,0,0,1,159.8,40.037c-4.181.1-8.915,4.042-9.162,8.239Z" transform="translate(-125.411 -35.4)" fill="#e0b394"/>
      <g id="Grupo_1202850" data-name="Grupo 1202850" transform="translate(23.934 21.623)">
        <path id="Trazado_1048950" data-name="Trazado 1048950" d="M186.247,187.189V189.5a4.552,4.552,0,1,1-9.1,0v-2.773a10.737,10.737,0,0,0,3.109.46Z" transform="translate(-177.144 -186.728)" fill="#c0e7f9"/>
        <path id="Trazado_1048951" data-name="Trazado 1048951" d="M291.641,186.717v2.774a4.552,4.552,0,1,1-9.1,0v-2.313h5.988c.232,0,.463-.008.692-.023A10.684,10.684,0,0,0,291.641,186.717Z" transform="translate(-270.333 -186.717)" fill="#c0e7f9"/>
      </g>
      <g id="Grupo_1202851" data-name="Grupo 1202851" transform="translate(26.746 21.623)">
        <path id="Trazado_1048952" data-name="Trazado 1048952" d="M312.709,186.717v2.774a4.553,4.553,0,0,1-6.344,4.185l3.921-6.521A10.684,10.684,0,0,0,312.709,186.717Z" transform="translate(-294.212 -186.717)" fill="#e6f6fc"/>
        <path id="Trazado_1048953" data-name="Trazado 1048953" d="M207.717,190.7v2.313a4.555,4.555,0,0,1-6.292,4.208l3.922-6.521h2.37Z" transform="translate(-201.425 -190.239)" fill="#e6f6fc"/>
      </g>
      <path id="Trazado_1048954" data-name="Trazado 1048954" d="M171.9,24.515s-5.954-7.1-13.621-4c-3.825,1.547-6.474,1.427-8.452.561l-.136-.063c-.043-.019-.085-.039-.127-.059a7.811,7.811,0,0,1-1.125-.669c0,.012-.01.024-.015.036-1.51,3.877-8.1,4.321-8.1,4.321s-2.952-4.711-1.334-8.352c1.283-2.888,4.685-5.944,10.476-7.086a25.931,25.931,0,0,1,5.033-.467C163.405,8.736,171.9,14.67,171.9,24.515Z" transform="translate(-119.049 -7.724)" fill="#666"/>
      <path id="Trazado_1048955" data-name="Trazado 1048955" d="M149.471,12.764s-6.906,7.24-1.045,11.117c-1.51,3.877-8.1,4.321-8.1,4.321s-2.952-4.711-1.334-8.352C140.277,16.962,143.68,13.906,149.471,12.764Z" transform="translate(-119.049 -11.286)" fill="#4d4d4d"/>
      <path id="Trazado_1048956" data-name="Trazado 1048956" d="M390.317,319.918v12.687a1.989,1.989,0,0,1-1.989,1.989h-6.652a1.989,1.989,0,0,1-1.989-1.989V319.918a1.989,1.989,0,0,1,1.989-1.989h6.652A1.989,1.989,0,0,1,390.317,319.918Z" transform="translate(-332.297 -281.111)" fill="#fce8ca"/>
      <path id="Trazado_1048957" data-name="Trazado 1048957" d="M415.669,319.919v12.687a1.989,1.989,0,0,1-1.989,1.989h-5.32L413.3,317.93h.383A1.989,1.989,0,0,1,415.669,319.919Z" transform="translate(-357.648 -281.112)" fill="#fcf3e6"/>
      <path id="Trazado_1048958" data-name="Trazado 1048958" d="M390.317,418.666v3.01a1.989,1.989,0,0,1-1.989,1.989h-6.652a1.989,1.989,0,0,1-1.989-1.989v-3.01Z" transform="translate(-332.297 -370.182)" fill="#666"/>
      <path id="Trazado_1048959" data-name="Trazado 1048959" d="M415.669,418.666v3.01a1.989,1.989,0,0,1-1.989,1.989h-5.32l1.481-5Z" transform="translate(-357.648 -370.182)" fill="#999"/>
      <path id="Trazado_1048960" data-name="Trazado 1048960" d="M236.32,275.88a5.58,5.58,0,0,0,3.972-1.645,1.011,1.011,0,0,0-1.43-1.43,3.594,3.594,0,0,1-5.083,0,1.011,1.011,0,0,0-1.43,1.43A5.579,5.579,0,0,0,236.32,275.88Z" transform="translate(-201.759 -240.95)"/>
      <path id="Trazado_1048961" data-name="Trazado 1048961" d="M292.338,146.2a1.011,1.011,0,0,0,1.43,1.43,2.262,2.262,0,0,1,3.195,0,1.011,1.011,0,0,0,1.43-1.43A4.287,4.287,0,0,0,292.338,146.2Z" transform="translate(-254.801 -128.16)"/>
      <path id="Trazado_1048962" data-name="Trazado 1048962" d="M188.651,146.2a1.011,1.011,0,0,0,1.43,1.43,2.262,2.262,0,0,1,3.195,0,1.011,1.011,0,0,0,1.43-1.43A4.287,4.287,0,0,0,188.651,146.2Z" transform="translate(-163.122 -128.159)"/>
      <path id="Trazado_1048963" data-name="Trazado 1048963" d="M219.88,354.237a1.012,1.012,0,0,0-1.943-.565,5.624,5.624,0,0,1-10.8,0,1.011,1.011,0,0,0-1.942.565,7.647,7.647,0,0,0,14.684,0Z" transform="translate(-177.977 -312.07)"/>
      <path id="Trazado_1048964" data-name="Trazado 1048964" d="M139.383,348.527h-4.128V336.808a6.421,6.421,0,0,1,3.114-5.528,1.012,1.012,0,1,0-1.05-1.729,8.429,8.429,0,0,0-4.088,7.257v12.73a1.011,1.011,0,0,0,1.011,1.011h5.139a1.011,1.011,0,0,0,0-2.023Z" transform="translate(-114.383 -291.257)"/>
      <path id="Trazado_1048965" data-name="Trazado 1048965" d="M226.376,478.057a1.011,1.011,0,0,0-1.011,1.011v.9H205.191a1.011,1.011,0,0,0,0,2.023h21.185a1.012,1.012,0,0,0,1.011-1.011v-1.908A1.011,1.011,0,0,0,226.376,478.057Z" transform="translate(-177.115 -422.695)"/>
      <path id="Trazado_1048966" data-name="Trazado 1048966" d="M17.557,184.428H7.346a1.456,1.456,0,0,1-1.455-1.455V165.234a1.456,1.456,0,0,1,1.455-1.455h8.391a1.011,1.011,0,1,0,0-2.023H7.346a3.482,3.482,0,0,0-3.478,3.478v17.739a3.482,3.482,0,0,0,3.478,3.478h6.842l-.628,2.166h-1.8a1.011,1.011,0,1,0,0,2.023h4.72a1.011,1.011,0,1,0,0-2.023h-.812l.628-2.166h1.263a1.012,1.012,0,0,0,0-2.023Z" transform="translate(0 -143.025)"/>
      <path id="Trazado_1048967" data-name="Trazado 1048967" d="M26.578,314.281a1.011,1.011,0,0,0,1.011,1.011H40.267a1.011,1.011,0,1,0,0-2.023H27.589A1.011,1.011,0,0,0,26.578,314.281Z" transform="translate(-20.08 -276.991)"/>
      <path id="Trazado_1048968" data-name="Trazado 1048968" d="M39.235,196.065a1.011,1.011,0,0,0,1.011-1.011v-1.888a1.011,1.011,0,0,0-2.023,0v1.888A1.011,1.011,0,0,0,39.235,196.065Z" transform="translate(-30.377 -169.901)"/>
      <path id="Trazado_1048969" data-name="Trazado 1048969" d="M38.224,240.472a1.011,1.011,0,0,0,2.023,0v-1.888a1.011,1.011,0,0,0-2.023,0Z" transform="translate(-30.377 -210.06)"/>
      <path id="Trazado_1048970" data-name="Trazado 1048970" d="M82.478,240.472a1.011,1.011,0,0,0,2.023,0v-1.888a1.011,1.011,0,0,0-2.023,0Z" transform="translate(-69.506 -210.06)"/>
      <path id="Trazado_1048971" data-name="Trazado 1048971" d="M66.02,192.153a1.011,1.011,0,0,0-1.011,1.011v1.888a1.011,1.011,0,0,0,2.023,0v-1.888A1.011,1.011,0,0,0,66.02,192.153Z" transform="translate(-54.06 -169.9)"/>
      <path id="Trazado_1048972" data-name="Trazado 1048972" d="M79.95,81.1a1.011,1.011,0,0,0,1.011-1.011V75.031a1.011,1.011,0,0,0-1.727-.715l-1.416,1.416a1.012,1.012,0,0,0,1.12,1.643v2.714A1.012,1.012,0,0,0,79.95,81.1Z" transform="translate(-65.125 -65.448)"/>
      <path id="Trazado_1048973" data-name="Trazado 1048973" d="M481.249,231.243a1.012,1.012,0,0,0-1.1.219l-1.416,1.416a1.012,1.012,0,0,0,1.12,1.643v2.714a1.011,1.011,0,1,0,2.023,0v-5.058A1.011,1.011,0,0,0,481.249,231.243Z" transform="translate(-419.609 -204.396)"/>
      <path id="Trazado_1048974" data-name="Trazado 1048974" d="M27.277,81.1a2.641,2.641,0,0,0,2.638-2.638v-1.8a2.638,2.638,0,0,0-5.276,0v1.8A2.641,2.641,0,0,0,27.277,81.1Zm-.615-4.442a.615.615,0,0,1,1.23,0v1.8a.615.615,0,0,1-1.23,0Z" transform="translate(-18.366 -65.448)"/>
      <path id="Trazado_1048975" data-name="Trazado 1048975" d="M54.343,9.758v2.714a1.011,1.011,0,0,0,2.023,0V7.415A1.011,1.011,0,0,0,54.639,6.7L53.223,8.116a1.012,1.012,0,0,0,1.12,1.642Z" transform="translate(-43.377 -5.662)"/>
      <path id="Trazado_1048976" data-name="Trazado 1048976" d="M92.586,13.483a2.641,2.641,0,0,0,2.638-2.638v-1.8a2.638,2.638,0,0,0-5.276,0v1.8A2.641,2.641,0,0,0,92.586,13.483Zm-.615-4.442a.615.615,0,0,1,1.23,0v1.8a.615.615,0,0,1-1.23,0Z" transform="translate(-76.111 -5.661)"/>
      <path id="Trazado_1048977" data-name="Trazado 1048977" d="M423.437,233.8v1.8a2.638,2.638,0,0,0,5.276,0v-1.8a2.638,2.638,0,0,0-5.276,0Zm2.023,0a.615.615,0,0,1,1.23,0v1.8a.615.615,0,0,1-1.23,0Z" transform="translate(-370.98 -204.396)"/>
      <path id="Trazado_1048978" data-name="Trazado 1048978" d="M115.359,17.146l-.181,1.875a4.159,4.159,0,0,0-.766,8.109,11.267,11.267,0,0,0,4.613,9.564l5.536,4.021a8.73,8.73,0,0,0,10.293,0l5.536-4.022A11.267,11.267,0,0,0,145,27.13a4.159,4.159,0,0,0-.766-8.109l-.213-2.2a1.012,1.012,0,0,0-2.014.194l.257,2.664a9.752,9.752,0,0,1-1.975.906,1.006,1.006,0,0,0-.436.132,9.715,9.715,0,0,1-2.611.358H122.161a9.717,9.717,0,0,1-2.8-.412l-.027-.008a9.756,9.756,0,0,1-2.19-.974l.179-1.851a17.448,17.448,0,0,0,2.885-.662,8.65,8.65,0,0,0,4.692-3.179c2.667,1.418,5.9,1.331,9.826-.26a9.726,9.726,0,0,1,8.753.749A14.928,14.928,0,0,1,147.2,17.44a1.012,1.012,0,0,0,1.787-.65A15.857,15.857,0,0,0,143.26,4.434,19.981,19.981,0,0,0,130.573,0c-9.445,0-14.682,4.212-16.434,8.153C112.557,11.713,114.7,15.969,115.359,17.146Zm-1.86,6.008a2.138,2.138,0,0,1,1.476-2.03l-.376,3.9A2.131,2.131,0,0,1,113.5,23.154Zm32.418,0a2.13,2.13,0,0,1-1.1,1.868l-.376-3.9A2.138,2.138,0,0,1,145.917,23.154Zm-6.566-.248V24.4a3.54,3.54,0,1,1-7.08,0V23.1h4.977A11.747,11.747,0,0,0,139.35,22.906Zm-10.182.19h1.079v4.262a.539.539,0,1,1-1.079,0V23.1Zm-2.023,0v1.3a3.54,3.54,0,0,1-7.08,0V22.906a11.741,11.741,0,0,0,2.1.189Zm-9.1-.747V24.4a5.559,5.559,0,0,0,9.355,4.066,2.559,2.559,0,0,0,4.62,0,5.559,5.559,0,0,0,9.357-4.064v-2.05a11.785,11.785,0,0,0,1.106-.48l.47,4.867a9.232,9.232,0,0,1-3.748,8.324l-5.536,4.022a6.712,6.712,0,0,1-7.914,0l-5.536-4.022a9.232,9.232,0,0,1-3.748-8.324l.47-4.864A11.805,11.805,0,0,0,118.042,22.349ZM115.988,8.975a10.541,10.541,0,0,1,4.593-4.67,20.584,20.584,0,0,1,9.992-2.282c7.212,0,14.836,4.267,16.179,12.232a16.911,16.911,0,0,0-2.217-1.508,11.82,11.82,0,0,0-10.564-.9c-3.786,1.532-6.606,1.494-8.876-.118a9.139,9.139,0,0,1-1.179-1.008,1.012,1.012,0,0,0-1.431,1.43c.25.25.5.478.747.688-1.272,1.943-4.492,2.76-6.278,3a13.721,13.721,0,0,1-.869-2.051A6.965,6.965,0,0,1,115.988,8.975Z" transform="translate(-95.146)"/>
      <path id="Trazado_1048979" data-name="Trazado 1048979" d="M380.366,309.2h-6.652a3,3,0,0,0-3,3v12.687a3,3,0,0,0,3,3h6.652a3,3,0,0,0,3-3v-8.055a1.011,1.011,0,1,0-2.023,0v4.034h-8.607V312.2a.979.979,0,0,1,.978-.978h6.652a.979.979,0,0,1,.978.978v1.26a1.011,1.011,0,1,0,2.023,0V312.2A3,3,0,0,0,380.366,309.2Zm.978,13.689v2a.979.979,0,0,1-.978.978h-6.652a.979.979,0,0,1-.978-.978v-2Z" transform="translate(-324.363 -273.389)"/>
      <path id="Trazado_1048980" data-name="Trazado 1048980" d="M403.543,336.561a1.011,1.011,0,0,0,0,2.023H406.8a1.011,1.011,0,0,0,0-2.023Z" transform="translate(-352.496 -297.585)"/>
      <path id="Trazado_1048981" data-name="Trazado 1048981" d="M205.273,430.6a1.011,1.011,0,0,0,1.43-1.43L205.13,427.6l1.573-1.573a1.011,1.011,0,1,0-1.43-1.43l-2.289,2.289a1.011,1.011,0,0,0,0,1.43Z" transform="translate(-175.795 -375.161)"/>
      <path id="Trazado_1048982" data-name="Trazado 1048982" d="M298.188,430.6a1.011,1.011,0,0,0,1.43,0l2.289-2.289a1.011,1.011,0,0,0,0-1.43l-2.289-2.289a1.011,1.011,0,0,0-1.43,1.43l1.573,1.573-1.573,1.573A1.012,1.012,0,0,0,298.188,430.6Z" transform="translate(-259.974 -375.161)"/>
      <path id="Trazado_1048983" data-name="Trazado 1048983" d="M251.951,424.866l-2.225,4.577a1.011,1.011,0,1,0,1.819.885l2.225-4.577a1.011,1.011,0,1,0-1.819-.884Z" transform="translate(-217.296 -375.16)"/>
      <circle id="Elipse_12922" data-name="Elipse 12922" cx="1.011" cy="1.011" r="1.011" transform="translate(39.675 23.568)"/>
      <circle id="Elipse_12923" data-name="Elipse 12923" cx="1.011" cy="1.011" r="1.011" transform="translate(27.448 23.568)"/>
      <circle id="Elipse_12924" data-name="Elipse 12924" cx="1.011" cy="1.011" r="1.011" transform="translate(51.61 49.968)"/>
    </g>
  </g>
</svg>
