<svg xmlns="http://www.w3.org/2000/svg" xmlns:xlink="http://www.w3.org/1999/xlink" width="108" height="108" viewBox="0 0 108 108">
  <defs>
    <filter id="Trazado_982547" x="0" y="0" width="108" height="108" filterUnits="userSpaceOnUse">
      <feOffset dy="3" input="SourceAlpha"/>
      <feGaussianBlur stdDeviation="3" result="blur"/>
      <feFlood flood-opacity="0.161"/>
      <feComposite operator="in" in2="blur"/>
      <feComposite in="SourceGraphic"/>
    </filter>
  </defs>
  <g id="Grupo_1202857" data-name="Grupo 1202857" transform="translate(-1034.869 -3405.07)">
    <g id="Grupo_1202749" data-name="Grupo 1202749" transform="translate(-0.631 -774.93)">
      <g id="Grupo_1202560" data-name="Grupo 1202560" transform="translate(713.704 1937.702)">
        <g id="Grupo_1202232" data-name="Grupo 1202232" transform="translate(330.796 2248.298)">
          <g id="Grupo_1201680" data-name="Grupo 1201680">
            <g id="Grupo_1201330" data-name="Grupo 1201330">
              <g id="Grupo_1172010" data-name="Grupo 1172010">
                <g id="Grupo_1171046" data-name="Grupo 1171046">
                  <g id="Grupo_1148525" data-name="Grupo 1148525">
                    <g transform="matrix(1, 0, 0, 1, -9, -6)" filter="url(#Trazado_982547)">
                      <g id="Trazado_982547-2" data-name="Trazado 982547" transform="translate(9 6)" fill="#e5ebfb">
                        <path d="M 45.00000381469727 88.5 C 39.12688064575195 88.5 33.43022918701172 87.35008239746094 28.06830406188965 85.08217620849609 C 22.88852882385254 82.89131927490234 18.23630332946777 79.75459289550781 14.24085426330566 75.7591552734375 C 10.24541664123535 71.76370239257812 7.108691215515137 67.11148071289062 4.917829036712646 61.93170547485352 C 2.64992880821228 56.56977844238281 1.500003814697266 50.87312698364258 1.500003814697266 45.00000381469727 C 1.500003814697266 39.12688064575195 2.64992880821228 33.43022918701172 4.917829036712646 28.06830406188965 C 7.108691215515137 22.88852882385254 10.24541664123535 18.23630332946777 14.24085426330566 14.24085426330566 C 18.23630332946777 10.24541664123535 22.88852882385254 7.108691215515137 28.06830406188965 4.917829036712646 C 33.43022918701172 2.64992880821228 39.12688064575195 1.500003814697266 45.00000381469727 1.500003814697266 C 50.87312698364258 1.500003814697266 56.56977844238281 2.64992880821228 61.93170547485352 4.917829036712646 C 67.11148071289062 7.108691215515137 71.76370239257812 10.24541664123535 75.7591552734375 14.24085426330566 C 79.75459289550781 18.23630332946777 82.89131927490234 22.88852882385254 85.08217620849609 28.06830406188965 C 87.35008239746094 33.43022918701172 88.5 39.12688064575195 88.5 45.00000381469727 C 88.5 50.87312698364258 87.35008239746094 56.56977844238281 85.08217620849609 61.93170547485352 C 82.89131927490234 67.11148071289062 79.75459289550781 71.76370239257812 75.7591552734375 75.7591552734375 C 71.76370239257812 79.75459289550781 67.11148071289062 82.89131927490234 61.93170547485352 85.08217620849609 C 56.56977844238281 87.35008239746094 50.87312698364258 88.5 45.00000381469727 88.5 Z" stroke="none"/>
                        <path d="M 45.00000381469727 3.000007629394531 C 39.32871627807617 3.000007629394531 33.82865905761719 4.110061645507812 28.65263366699219 6.299346923828125 C 23.65166473388672 8.414573669433594 19.15969085693359 11.44334411621094 15.30152130126953 15.30152130126953 C 11.44334411621094 19.15969085693359 8.414573669433594 23.65166473388672 6.299346923828125 28.65263366699219 C 4.110061645507812 33.82865905761719 3.000007629394531 39.32871627807617 3.000007629394531 45.00000381469727 C 3.000007629394531 50.67129135131836 4.110061645507812 56.17134857177734 6.299346923828125 61.34737396240234 C 8.414573669433594 66.34834289550781 11.44334411621094 70.84031677246094 15.30152130126953 74.698486328125 C 19.15969085693359 78.55666351318359 23.65166473388672 81.58543395996094 28.65263366699219 83.70066070556641 C 33.82865905761719 85.88994598388672 39.32871627807617 87 45.00000381469727 87 C 50.67129135131836 87 56.17134857177734 85.88994598388672 61.34737396240234 83.70066070556641 C 66.34834289550781 81.58543395996094 70.84031677246094 78.55666351318359 74.698486328125 74.698486328125 C 78.55666351318359 70.84031677246094 81.58543395996094 66.34834289550781 83.70066070556641 61.34737396240234 C 85.88994598388672 56.17134857177734 87 50.67129135131836 87 45.00000381469727 C 87 39.32871627807617 85.88994598388672 33.82865905761719 83.70066070556641 28.65263366699219 C 81.58543395996094 23.65166473388672 78.55666351318359 19.15969085693359 74.698486328125 15.30152130126953 C 70.84031677246094 11.44334411621094 66.34834289550781 8.414573669433594 61.34737396240234 6.299346923828125 C 56.17134857177734 4.110061645507812 50.67129135131836 3.000007629394531 45.00000381469727 3.000007629394531 M 45.00000381469727 7.62939453125e-06 C 69.85281372070312 7.62939453125e-06 90 20.14718627929688 90 45.00000381469727 C 90 69.85281372070312 69.85281372070312 90 45.00000381469727 90 C 20.14718627929688 90 7.62939453125e-06 69.85281372070312 7.62939453125e-06 45.00000381469727 C 7.62939453125e-06 20.14718627929688 20.14718627929688 7.62939453125e-06 45.00000381469727 7.62939453125e-06 Z" stroke="none" fill="#5c2c88"/>
                      </g>
                    </g>
                  </g>
                </g>
              </g>
            </g>
          </g>
        </g>
      </g>
    </g>
    <g id="Layer_x0020_1" transform="translate(1059.648 3424.044)">
      <path id="Trazado_1049077" data-name="Trazado 1049077" d="M35.709,16.982l-2.534-2.26a.994.994,0,0,1,1.335-1.472l.719.685V11.059h-14a.993.993,0,0,1,0-1.986h15a.994.994,0,0,1,.993.993v3.869c.514-.479,1.369-1.472,2.157-.582a1.006,1.006,0,0,1-.068,1.369,32.809,32.809,0,0,1-2.6,2.294A1.026,1.026,0,0,1,35.709,16.982ZM2.362,46.391V15.441a.994.994,0,0,1,.993-.993H14.14a15.1,15.1,0,0,1,30.163,0H55.088a.994.994,0,0,1,.993.993v30.95c.89,0,2.362-.24,2.362.993V57.45a.994.994,0,0,1-.993.993H.993A.994.994,0,0,1,0,57.45V47.384C0,46.152,1.438,46.391,2.362,46.391ZM14.174,16.434H4.348V46.391H54.095V16.434H44.269a15.107,15.107,0,0,1-30.094,0ZM1.986,56.457H56.457v-8.08H38.14v4.04a.994.994,0,0,1-.993.993H21.3a.994.994,0,0,1-.993-.993v-4.04H1.986Zm20.3-5.033H36.154V48.377H22.288ZM29.2,1.986A13.113,13.113,0,1,0,42.317,15.1,13.147,13.147,0,0,0,29.2,1.986ZM14.38,39.886H10.031a.994.994,0,0,1-.993-.993V32.662a.994.994,0,0,1,.993-.993H14.38a.994.994,0,0,1,.993.993v6.231A.994.994,0,0,1,14.38,39.886ZM11.024,37.9h2.362V33.655H11.024Zm9,1.986a.994.994,0,0,1-.993-.993V34.374c-.479.274-1.335.856-1.883-.068a1.04,1.04,0,0,1,.377-1.369l2.02-1.13a.986.986,0,0,1,1.472.856v6.231A.994.994,0,0,1,20.029,39.886Zm8.559,0H24.206a.994.994,0,0,1-.993-.993V32.662a.994.994,0,0,1,.993-.993h4.382a.994.994,0,0,1,.993.993v6.231A.994.994,0,0,1,28.588,39.886ZM25.2,37.9h2.4V33.655H25.2Zm9,1.986a.994.994,0,0,1-.993-.993V34.374c-.445.274-1.335.856-1.849-.068a1.008,1.008,0,0,1,.377-1.369l1.986-1.13a.986.986,0,0,1,1.472.856v6.231A.994.994,0,0,1,34.2,39.886Zm8.559,0H38.414a.994.994,0,0,1-.993-.993V32.662a.994.994,0,0,1,.993-.993h4.348a.994.994,0,0,1,.993.993v6.231A.994.994,0,0,1,42.762,39.886ZM39.407,37.9h2.362V33.655H39.407Zm9,1.986a.994.994,0,0,1-.993-.993V34.374c-.479.274-1.335.856-1.883-.068a1.008,1.008,0,0,1,.377-1.369l1.986-1.13a1,1,0,0,1,1.506.856v6.231A.994.994,0,0,1,48.411,39.886Zm1.575,4.69H8.422a.993.993,0,0,1,0-1.986H49.986A.993.993,0,0,1,49.986,44.577Zm-12.8-23.418h-15a.994.994,0,0,1-.993-.993V16.3c-.514.445-1.335,1.438-2.123.582a.983.983,0,0,1,.068-1.4,24.532,24.532,0,0,1,2.739-2.362.967.967,0,0,1,.993.205l2.4,2.157a.994.994,0,0,1-1.335,1.472l-.753-.651v2.876h14A.993.993,0,1,1,37.182,21.159Z" fill-rule="evenodd"/>
      <path id="Trazado_1049078" data-name="Trazado 1049078" d="M151.856,493.763A15.115,15.115,0,0,1,136.826,480H127v29.958h49.747V480h-9.826A15.147,15.147,0,0,1,151.856,493.763Zm-19.173,1.472h4.348a.994.994,0,0,1,.993.993v6.231a.994.994,0,0,1-.993.993h-4.348a.994.994,0,0,1-.993-.993v-6.231A.994.994,0,0,1,132.683,495.236Zm7.121,2.636a1.04,1.04,0,0,1,.377-1.369l2.02-1.13a.986.986,0,0,1,1.472.856v6.231a.993.993,0,0,1-1.986,0V497.94C141.208,498.214,140.352,498.8,139.8,497.872Zm6.06,4.588v-6.231a.994.994,0,0,1,.993-.993h4.382a.994.994,0,0,1,.993.993v6.231a.994.994,0,0,1-.993.993h-4.382A.994.994,0,0,1,145.865,502.46Zm10.99.993a.994.994,0,0,1-.993-.993V497.94c-.445.274-1.335.856-1.849-.068a1.008,1.008,0,0,1,.377-1.369l1.986-1.13a.986.986,0,0,1,1.472.856v6.231A.994.994,0,0,1,156.855,503.452Zm3.218-.993v-6.231a.994.994,0,0,1,.993-.993h4.348a.994.994,0,0,1,.993.993v6.231a.994.994,0,0,1-.993.993h-4.348A.994.994,0,0,1,160.073,502.46Zm10.99.993a.994.994,0,0,1-.993-.993V497.94c-.479.274-1.335.856-1.883-.068a1.008,1.008,0,0,1,.377-1.369l1.986-1.13a1,1,0,0,1,1.506.856v6.231A.994.994,0,0,1,171.063,503.452Zm-39.989,2.7h41.564a.993.993,0,0,1,0,1.986H131.074A.993.993,0,0,1,131.074,506.157Z" transform="translate(-122.652 -463.566)" fill="#9ff" fill-rule="evenodd"/>
      <path id="Trazado_1049079" data-name="Trazado 1049079" d="M469.9,71.455A13.115,13.115,0,1,0,483.011,58,13.135,13.135,0,0,0,469.9,71.455Zm21.09,5.718h-15A.994.994,0,0,1,475,76.18V72.311c-.514.445-1.335,1.438-2.123.582a.983.983,0,0,1,.068-1.4,24.534,24.534,0,0,1,2.739-2.362.967.967,0,0,1,.993.205l2.4,2.157a.994.994,0,0,1-1.335,1.472l-.753-.651v2.876h14A.993.993,0,1,1,490.989,77.173ZM489.516,73l-2.534-2.26a.994.994,0,0,1,1.335-1.472l.719.685V67.073h-14a.993.993,0,0,1,0-1.986h15a.994.994,0,0,1,.993.993v3.869c.514-.479,1.37-1.472,2.157-.582a1.006,1.006,0,0,1-.068,1.369,32.819,32.819,0,0,1-2.6,2.294A1.026,1.026,0,0,1,489.516,73Z" transform="translate(-453.807 -56.014)" fill="#1aa1ff" fill-rule="evenodd"/>
      <g id="Grupo_1202856" data-name="Grupo 1202856" transform="translate(11.024 33.655)">
        <path id="Trazado_1049080" data-name="Trazado 1049080" d="M324.362,983H322v4.245h2.362Z" transform="translate(-322 -983)" fill="#9ff" fill-rule="evenodd"/>
        <path id="Trazado_1049081" data-name="Trazado 1049081" d="M736,983v4.245h2.4V983Z" transform="translate(-721.826 -983)" fill="#9ff" fill-rule="evenodd"/>
        <path id="Trazado_1049082" data-name="Trazado 1049082" d="M1151,983v4.245h2.362V983Z" transform="translate(-1122.617 -983)" fill="#9ff" fill-rule="evenodd"/>
      </g>
      <path id="Trazado_1049083" data-name="Trazado 1049083" d="M664.866,1413H651v3.047h13.866Z" transform="translate(-628.712 -1364.623)" fill="#e4e4e4" fill-rule="evenodd"/>
      <path id="Trazado_1049084" data-name="Trazado 1049084" d="M94.154,1413v4.04a.994.994,0,0,1-.993.993H77.31a.994.994,0,0,1-.993-.993V1413H58v8.08h54.471V1413Z" transform="translate(-56.014 -1364.623)" fill="#333" fill-rule="evenodd"/>
    </g>
  </g>
</svg>
