<svg xmlns="http://www.w3.org/2000/svg" xmlns:xlink="http://www.w3.org/1999/xlink" width="108" height="108" viewBox="0 0 108 108">
  <defs>
    <filter id="Trazado_982547" x="0" y="0" width="108" height="108" filterUnits="userSpaceOnUse">
      <feOffset dy="3" input="SourceAlpha"/>
      <feGaussianBlur stdDeviation="3" result="blur"/>
      <feFlood flood-opacity="0.161"/>
      <feComposite operator="in" in2="blur"/>
      <feComposite in="SourceGraphic"/>
    </filter>
  </defs>
  <g id="Grupo_1202767" data-name="Grupo 1202767" transform="translate(-615.369 -2364)">
    <g id="Grupo_1180856" data-name="Grupo 1180856" transform="translate(-0.631 -1816)">
      <g id="Grupo_1202559" data-name="Grupo 1202559" transform="translate(294.204 1937.702)">
        <g id="Grupo_1202232" data-name="Grupo 1202232" transform="translate(330.796 2248.298)">
          <g id="Grupo_1201680" data-name="Grupo 1201680">
            <g id="Grupo_1201330" data-name="Grupo 1201330">
              <g id="Grupo_1172010" data-name="Grupo 1172010">
                <g id="Grupo_1171046" data-name="Grupo 1171046">
                  <g id="Grupo_1148525" data-name="Grupo 1148525">
                    <g transform="matrix(1, 0, 0, 1, -9, -6)" filter="url(#Trazado_982547)">
                      <g id="Trazado_982547-2" data-name="Trazado 982547" transform="translate(9 6)" fill="#e5ebfb">
                        <path d="M 45.00000381469727 88.5 C 39.12688064575195 88.5 33.43022918701172 87.35008239746094 28.06830406188965 85.08217620849609 C 22.88852882385254 82.89131927490234 18.23630332946777 79.75459289550781 14.24085426330566 75.7591552734375 C 10.24541664123535 71.76370239257812 7.108691215515137 67.11148071289062 4.917829036712646 61.93170547485352 C 2.64992880821228 56.56977844238281 1.500003814697266 50.87312698364258 1.500003814697266 45.00000381469727 C 1.500003814697266 39.12688064575195 2.64992880821228 33.43022918701172 4.917829036712646 28.06830406188965 C 7.108691215515137 22.88852882385254 10.24541664123535 18.23630332946777 14.24085426330566 14.24085426330566 C 18.23630332946777 10.24541664123535 22.88852882385254 7.108691215515137 28.06830406188965 4.917829036712646 C 33.43022918701172 2.64992880821228 39.12688064575195 1.500003814697266 45.00000381469727 1.500003814697266 C 50.87312698364258 1.500003814697266 56.56977844238281 2.64992880821228 61.93170547485352 4.917829036712646 C 67.11148071289062 7.108691215515137 71.76370239257812 10.24541664123535 75.7591552734375 14.24085426330566 C 79.75459289550781 18.23630332946777 82.89131927490234 22.88852882385254 85.08217620849609 28.06830406188965 C 87.35008239746094 33.43022918701172 88.5 39.12688064575195 88.5 45.00000381469727 C 88.5 50.87312698364258 87.35008239746094 56.56977844238281 85.08217620849609 61.93170547485352 C 82.89131927490234 67.11148071289062 79.75459289550781 71.76370239257812 75.7591552734375 75.7591552734375 C 71.76370239257812 79.75459289550781 67.11148071289062 82.89131927490234 61.93170547485352 85.08217620849609 C 56.56977844238281 87.35008239746094 50.87312698364258 88.5 45.00000381469727 88.5 Z" stroke="none"/>
                        <path d="M 45.00000381469727 3.000007629394531 C 39.32871627807617 3.000007629394531 33.82865905761719 4.110061645507812 28.65263366699219 6.299346923828125 C 23.65166473388672 8.414573669433594 19.15969085693359 11.44334411621094 15.30152130126953 15.30152130126953 C 11.44334411621094 19.15969085693359 8.414573669433594 23.65166473388672 6.299346923828125 28.65263366699219 C 4.110061645507812 33.82865905761719 3.000007629394531 39.32871627807617 3.000007629394531 45.00000381469727 C 3.000007629394531 50.67129135131836 4.110061645507812 56.17134857177734 6.299346923828125 61.34737396240234 C 8.414573669433594 66.34834289550781 11.44334411621094 70.84031677246094 15.30152130126953 74.698486328125 C 19.15969085693359 78.55666351318359 23.65166473388672 81.58543395996094 28.65263366699219 83.70066070556641 C 33.82865905761719 85.88994598388672 39.32871627807617 87 45.00000381469727 87 C 50.67129135131836 87 56.17134857177734 85.88994598388672 61.34737396240234 83.70066070556641 C 66.34834289550781 81.58543395996094 70.84031677246094 78.55666351318359 74.698486328125 74.698486328125 C 78.55666351318359 70.84031677246094 81.58543395996094 66.34834289550781 83.70066070556641 61.34737396240234 C 85.88994598388672 56.17134857177734 87 50.67129135131836 87 45.00000381469727 C 87 39.32871627807617 85.88994598388672 33.82865905761719 83.70066070556641 28.65263366699219 C 81.58543395996094 23.65166473388672 78.55666351318359 19.15969085693359 74.698486328125 15.30152130126953 C 70.84031677246094 11.44334411621094 66.34834289550781 8.414573669433594 61.34737396240234 6.299346923828125 C 56.17134857177734 4.110061645507812 50.67129135131836 3.000007629394531 45.00000381469727 3.000007629394531 M 45.00000381469727 7.62939453125e-06 C 69.85281372070312 7.62939453125e-06 90 20.14718627929688 90 45.00000381469727 C 90 69.85281372070312 69.85281372070312 90 45.00000381469727 90 C 20.14718627929688 90 7.62939453125e-06 69.85281372070312 7.62939453125e-06 45.00000381469727 C 7.62939453125e-06 20.14718627929688 20.14718627929688 7.62939453125e-06 45.00000381469727 7.62939453125e-06 Z" stroke="none" fill="#5c2c88"/>
                      </g>
                    </g>
                  </g>
                </g>
              </g>
            </g>
          </g>
        </g>
      </g>
    </g>
    <g id="web-design_1095865" transform="translate(642.814 2387.445)">
      <path id="Trazado_1048451" data-name="Trazado 1048451" d="M73.4,104.169V138.69H25.6V104.169a1.776,1.776,0,0,1,1.77-1.77H71.629a1.776,1.776,0,0,1,1.77,1.77Zm0,0" transform="translate(-22.945 -91.777)" fill="#9d9d9d"/>
      <path id="Trazado_1048452" data-name="Trazado 1048452" d="M70.745,104.169V138.69H25.6V104.169a1.776,1.776,0,0,1,1.77-1.77h41.6a1.776,1.776,0,0,1,1.77,1.77Zm0,0" transform="translate(-22.946 -91.777)" fill="#ced7db"/>
      <path id="Trazado_1048453" data-name="Trazado 1048453" d="M100.159,136.765a1.244,1.244,0,0,0-.132-.1.825.825,0,0,0-.46-.132H60.619a.885.885,0,0,0-.885.885V166.63h40.717V137.419a.884.884,0,0,0-.292-.655Zm0,0" transform="translate(-53.538 -122.372)" fill="#00bbd3"/>
      <path id="Trazado_1048454" data-name="Trazado 1048454" d="M59.875,427.553v3.541a3.541,3.541,0,0,1-3.541,3.541H12.076a3.541,3.541,0,0,1-3.541-3.541v-3.541a.885.885,0,0,1,.885-.885H58.99a.885.885,0,0,1,.885.885Zm0,0" transform="translate(-7.65 -382.409)" fill="#37474f"/>
      <path id="Trazado_1048455" data-name="Trazado 1048455" d="M57.219,427.553v3.541a3.541,3.541,0,0,1-3.541,3.541h-41.6a3.541,3.541,0,0,1-3.541-3.541v-3.541a.885.885,0,0,1,.885-.885H56.334a.885.885,0,0,1,.885.885Zm0,0" transform="translate(-7.65 -382.409)" fill="#607d8a"/>
      <path id="Trazado_1048456" data-name="Trazado 1048456" d="M188.371,426.668l-1.283,2.558a1.771,1.771,0,0,1-1.585.983H173.536a1.771,1.771,0,0,1-1.585-.983l-1.283-2.558Zm0,0" transform="translate(-152.965 -382.41)" fill="#37474f"/>
      <path id="Trazado_1048457" data-name="Trazado 1048457" d="M184.83,426.668l-1.283,2.558a1.771,1.771,0,0,1-1.585.983h-8.426a1.771,1.771,0,0,1-1.585-.983l-1.283-2.558Zm0,0" transform="translate(-152.964 -382.41)" fill="#607d8a"/>
      <path id="Trazado_1048458" data-name="Trazado 1048458" d="M20.042,453.151a.885.885,0,0,1-.885.885H8.536v-1.77H19.158A.885.885,0,0,1,20.042,453.151Zm0,0" transform="translate(-7.65 -405.352)" fill="#7f8c8d"/>
      <path id="Trazado_1048459" data-name="Trazado 1048459" d="M138.306,452.266h-.885a.885.885,0,0,0,0,1.77h.885a.885.885,0,0,0,0-1.77Zm0,0" transform="translate(-122.373 -405.352)" fill="#7f8c8d"/>
      <path id="Trazado_1048460" data-name="Trazado 1048460" d="M404.043,452.266v1.77H393.421a.885.885,0,0,1,0-1.77Zm0,0" transform="translate(-351.818 -405.352)" fill="#7f8c8d"/>
      <path id="Trazado_1048461" data-name="Trazado 1048461" d="M351.638,452.266h-.885a.885.885,0,0,0,0,1.77h.885a.885.885,0,0,0,0-1.77Zm0,0" transform="translate(-313.576 -405.352)" fill="#7f8c8d"/>
      <path id="Trazado_1048462" data-name="Trazado 1048462" d="M134.265,76.8v28.325a3.541,3.541,0,0,1-3.541,3.541H105.94a3.541,3.541,0,0,1-3.541-3.541V76.8Zm0,0" transform="translate(-91.777 -68.834)" fill="#9d9d9d"/>
      <path id="Trazado_1048463" data-name="Trazado 1048463" d="M131.609,76.8v28.325a3.541,3.541,0,0,1-3.541,3.541H105.939a3.541,3.541,0,0,1-3.541-3.541V76.8Zm0,0" transform="translate(-91.777 -68.834)" fill="#ced7db"/>
      <path id="Trazado_1048464" data-name="Trazado 1048464" d="M134.265,12.076v3.541H102.4V12.076a3.541,3.541,0,0,1,3.541-3.541h24.784a3.541,3.541,0,0,1,3.541,3.541Zm0,0" transform="translate(-91.777 -7.65)" fill="#00828e"/>
      <path id="Trazado_1048465" data-name="Trazado 1048465" d="M131.609,12.076v3.541H102.4V12.076a3.541,3.541,0,0,1,3.541-3.541h22.129a3.541,3.541,0,0,1,3.541,3.541Zm0,0" transform="translate(-91.776 -7.65)" fill="#00bbd3"/>
      <path id="Trazado_1048466" data-name="Trazado 1048466" d="M129.77,35.9h-.885a.885.885,0,1,1,0-1.77h.885a.885.885,0,1,1,0,1.77Zm0,0" transform="translate(-114.722 -30.592)" fill="#e64c3c"/>
      <path id="Trazado_1048467" data-name="Trazado 1048467" d="M163.9,35.9h-.885a.885.885,0,1,1,0-1.77h.885a.885.885,0,1,1,0,1.77Zm0,0" transform="translate(-145.315 -30.592)" fill="#f0c419"/>
      <path id="Trazado_1048468" data-name="Trazado 1048468" d="M198.036,35.9h-.885a.885.885,0,1,1,0-1.77h.885a.885.885,0,1,1,0,1.77Zm0,0" transform="translate(-175.907 -30.592)" fill="#14a085"/>
      <path id="Trazado_1048469" data-name="Trazado 1048469" d="M167.185,111.194a.885.885,0,0,0-1.252,0l-3.541,3.541a.885.885,0,0,0,0,1.252l3.541,3.541a.885.885,0,0,0,1.252-1.252l-2.915-2.915,2.915-2.915a.885.885,0,0,0,0-1.252Zm0,0" transform="translate(-145.316 -99.428)" fill="#2fa8cc"/>
      <path id="Trazado_1048470" data-name="Trazado 1048470" d="M303.624,114.827l-3.541-3.541a.885.885,0,0,0-1.252,1.252l2.915,2.915-2.915,2.915a.885.885,0,1,0,1.252,1.252l3.541-3.541a.885.885,0,0,0,0-1.252Zm0,0" transform="translate(-267.591 -99.52)" fill="#2fa8cc"/>
      <path id="Trazado_1048471" data-name="Trazado 1048471" d="M227.354,111.288l-5.311,7.081a.885.885,0,1,0,1.416,1.062l5.311-7.081a.885.885,0,0,0-1.416-1.062Zm0,0" transform="translate(-198.851 -99.427)" fill="#2fa8cc"/>
      <g id="Grupo_1202771" data-name="Grupo 1202771" transform="translate(14.163 23.899)">
        <path id="Trazado_1048472" data-name="Trazado 1048472" d="M138.306,230.4h-.885a.885.885,0,0,0,0,1.77h.885a.885.885,0,0,0,0-1.77Zm0,0" transform="translate(-136.536 -230.398)" fill="#3f5c6c"/>
        <path id="Trazado_1048473" data-name="Trazado 1048473" d="M180.084,232.169h18.588a.885.885,0,0,0,0-1.77H180.084a.885.885,0,1,0,0,1.77Zm0,0" transform="translate(-174.773 -230.399)" fill="#3f5c6c"/>
        <path id="Trazado_1048474" data-name="Trazado 1048474" d="M138.306,264.535h-.885a.885.885,0,0,0,0,1.77h.885a.885.885,0,0,0,0-1.77Zm0,0" transform="translate(-136.536 -260.994)" fill="#3f5c6c"/>
        <path id="Trazado_1048475" data-name="Trazado 1048475" d="M198.674,264.535H180.085a.885.885,0,1,0,0,1.77h18.588a.885.885,0,0,0,0-1.77Zm0,0" transform="translate(-174.774 -260.994)" fill="#3f5c6c"/>
        <path id="Trazado_1048476" data-name="Trazado 1048476" d="M138.306,298.668h-.885a.885.885,0,0,0,0,1.77h.885a.885.885,0,0,0,0-1.77Zm0,0" transform="translate(-136.536 -291.586)" fill="#3f5c6c"/>
        <path id="Trazado_1048477" data-name="Trazado 1048477" d="M198.674,298.668H180.085a.885.885,0,1,0,0,1.77h18.588a.885.885,0,0,0,0-1.77Zm0,0" transform="translate(-174.774 -291.586)" fill="#3f5c6c"/>
        <path id="Trazado_1048478" data-name="Trazado 1048478" d="M138.306,332.8h-.885a.885.885,0,0,0,0,1.77h.885a.885.885,0,0,0,0-1.77Zm0,0" transform="translate(-136.536 -322.179)" fill="#3f5c6c"/>
        <path id="Trazado_1048479" data-name="Trazado 1048479" d="M198.674,332.8H180.085a.885.885,0,1,0,0,1.77h18.588a.885.885,0,0,0,0-1.77Zm0,0" transform="translate(-174.774 -322.179)" fill="#3f5c6c"/>
      </g>
      <path id="Trazado_1048480" data-name="Trazado 1048480" d="M51.34,43.373V12.392a2.655,2.655,0,0,0-2.656-2.655H43.373V4.426A4.431,4.431,0,0,0,38.947,0H14.163A4.431,4.431,0,0,0,9.737,4.426V9.737H4.426A2.655,2.655,0,0,0,1.77,12.392V43.373A1.77,1.77,0,0,0,0,45.143v3.541A4.431,4.431,0,0,0,4.426,53.11H48.684a4.431,4.431,0,0,0,4.426-4.426V45.143a1.77,1.77,0,0,0-1.77-1.77ZM48.684,11.507a.885.885,0,0,1,.885.885V43.373H47.8V15.048a1.77,1.77,0,0,0-1.77-1.77H43.373v-1.77ZM35.407,43.373H7.081V15.048H9.737V36.292a4.431,4.431,0,0,0,4.426,4.426H38.947a4.431,4.431,0,0,0,4.426-4.426V15.048h2.656V43.373Zm-1.432,1.77-.641,1.281a.885.885,0,0,1-.791.489H20.568a.885.885,0,0,1-.791-.489l-.641-1.281ZM41.6,36.292a2.655,2.655,0,0,1-2.656,2.655H14.163a2.655,2.655,0,0,1-2.656-2.655V8.852H41.6ZM14.163,1.77H38.947A2.655,2.655,0,0,1,41.6,4.426V7.081h-30.1V4.426A2.655,2.655,0,0,1,14.163,1.77ZM3.541,12.392a.885.885,0,0,1,.885-.885H9.737v1.77H7.081a1.77,1.77,0,0,0-1.77,1.77V43.373H3.541ZM48.684,51.34H4.426A2.655,2.655,0,0,1,1.77,48.684h9.737a.885.885,0,0,0,0-1.77H1.77v-1.77H17.157l1.036,2.072a2.64,2.64,0,0,0,2.375,1.468H32.542a2.64,2.64,0,0,0,2.375-1.468l1.036-2.072H51.34v1.77H41.6a.885.885,0,0,0,0,1.77H51.34a2.655,2.655,0,0,1-2.656,2.656Zm0,0" transform="translate(0 0)"/>
      <path id="Trazado_1048481" data-name="Trazado 1048481" d="M138.306,452.266h-.885a.885.885,0,0,0,0,1.77h.885a.885.885,0,0,0,0-1.77Zm0,0" transform="translate(-122.373 -405.352)"/>
      <path id="Trazado_1048482" data-name="Trazado 1048482" d="M351.638,452.266h-.885a.885.885,0,0,0,0,1.77h.885a.885.885,0,0,0,0-1.77Zm0,0" transform="translate(-313.576 -405.352)"/>
      <path id="Trazado_1048483" data-name="Trazado 1048483" d="M128.885,35.9h.885a.885.885,0,1,0,0-1.77h-.885a.885.885,0,1,0,0,1.77Zm0,0" transform="translate(-114.722 -30.592)"/>
      <path id="Trazado_1048484" data-name="Trazado 1048484" d="M163.018,35.9h.885a.885.885,0,1,0,0-1.77h-.885a.885.885,0,1,0,0,1.77Zm0,0" transform="translate(-145.315 -30.592)"/>
      <path id="Trazado_1048485" data-name="Trazado 1048485" d="M197.151,35.9h.885a.885.885,0,1,0,0-1.77h-.885a.885.885,0,1,0,0,1.77Zm0,0" transform="translate(-175.907 -30.592)"/>
      <path id="Trazado_1048486" data-name="Trazado 1048486" d="M165.934,119.618a.885.885,0,0,0,1.252-1.252l-2.915-2.913,2.915-2.915a.885.885,0,0,0-1.252-1.252l-3.541,3.541a.885.885,0,0,0,0,1.252Zm0,0" transform="translate(-145.316 -99.52)"/>
      <path id="Trazado_1048487" data-name="Trazado 1048487" d="M298.936,119.6a.885.885,0,0,0,1.252,0l3.541-3.541a.885.885,0,0,0,0-1.252l-3.541-3.541a.885.885,0,0,0-1.252,1.252l2.915,2.917-2.915,2.915A.885.885,0,0,0,298.936,119.6Zm0,0" transform="translate(-267.696 -99.506)"/>
      <path id="Trazado_1048488" data-name="Trazado 1048488" d="M222.751,119.786a.884.884,0,0,0,.708-.354l5.311-7.081a.885.885,0,0,0-1.416-1.062l-5.311,7.081a.885.885,0,0,0,.177,1.239A.872.872,0,0,0,222.751,119.786Zm0,0" transform="translate(-198.851 -99.427)"/>
      <path id="Trazado_1048489" data-name="Trazado 1048489" d="M137.42,232.169h.885a.885.885,0,0,0,0-1.77h-.885a.885.885,0,0,0,0,1.77Zm0,0" transform="translate(-122.372 -206.499)"/>
      <path id="Trazado_1048490" data-name="Trazado 1048490" d="M179.2,231.284a.885.885,0,0,0,.885.885h18.588a.885.885,0,0,0,0-1.77H180.084A.885.885,0,0,0,179.2,231.284Zm0,0" transform="translate(-160.611 -206.499)"/>
      <path id="Trazado_1048491" data-name="Trazado 1048491" d="M137.42,266.306h.885a.885.885,0,0,0,0-1.77h-.885a.885.885,0,0,0,0,1.77Zm0,0" transform="translate(-122.372 -237.095)"/>
      <path id="Trazado_1048492" data-name="Trazado 1048492" d="M198.674,264.535H180.085a.885.885,0,1,0,0,1.77h18.588a.885.885,0,0,0,0-1.77Zm0,0" transform="translate(-160.611 -237.095)"/>
      <path id="Trazado_1048493" data-name="Trazado 1048493" d="M137.42,300.438h.885a.885.885,0,0,0,0-1.77h-.885a.885.885,0,0,0,0,1.77Zm0,0" transform="translate(-122.372 -267.687)"/>
      <path id="Trazado_1048494" data-name="Trazado 1048494" d="M198.674,298.668H180.085a.885.885,0,1,0,0,1.77h18.588a.885.885,0,0,0,0-1.77Zm0,0" transform="translate(-160.611 -267.687)"/>
      <path id="Trazado_1048495" data-name="Trazado 1048495" d="M137.42,334.571h.885a.885.885,0,0,0,0-1.77h-.885a.885.885,0,0,0,0,1.77Zm0,0" transform="translate(-122.372 -298.279)"/>
      <path id="Trazado_1048496" data-name="Trazado 1048496" d="M198.674,332.8H180.085a.885.885,0,1,0,0,1.77h18.588a.885.885,0,0,0,0-1.77Zm0,0" transform="translate(-160.611 -298.279)"/>
    </g>
  </g>
</svg>
