<svg xmlns="http://www.w3.org/2000/svg" xmlns:xlink="http://www.w3.org/1999/xlink" width="108" height="108" viewBox="0 0 108 108">
  <defs>
    <filter id="Trazado_904820" x="0" y="0" width="108" height="108" filterUnits="userSpaceOnUse">
      <feOffset dy="3" input="SourceAlpha"/>
      <feGaussianBlur stdDeviation="3" result="blur"/>
      <feFlood flood-opacity="0.161"/>
      <feComposite operator="in" in2="blur"/>
      <feComposite in="SourceGraphic"/>
    </filter>
  </defs>
  <g id="Grupo_1202746" data-name="Grupo 1202746" transform="translate(9 6)">
    <g id="Grupo_1178464" data-name="Grupo 1178464" transform="translate(0 0)">
      <g id="Grupo_1173585" data-name="Grupo 1173585">
        <g id="Grupo_1173428" data-name="Grupo 1173428">
          <g id="Grupo_1171958" data-name="Grupo 1171958">
            <g id="Grupo_1167341" data-name="Grupo 1167341">
              <g id="Grupo_1166792" data-name="Grupo 1166792">
                <g transform="matrix(1, 0, 0, 1, -9, -6)" filter="url(#Trazado_904820)">
                  <g id="Trazado_904820-2" data-name="Trazado 904820" transform="translate(9 6)" fill="#e5fdfa">
                    <path d="M 44.99999618530273 88.50003051757812 C 39.12687301635742 88.50003051757812 33.43022155761719 87.35010528564453 28.06829643249512 85.08219909667969 C 22.88852119445801 82.89134216308594 18.23629570007324 79.75461578369141 14.24084663391113 75.75916290283203 C 10.24540901184082 71.76371765136719 7.108683586120605 67.11150360107422 4.917821407318115 61.93172836303711 C 2.649921178817749 56.56978988647461 1.499996185302734 50.87313842773438 1.499996185302734 45.00001525878906 C 1.499996185302734 39.12689208984375 2.649921178817749 33.43024063110352 4.917821407318115 28.06830215454102 C 7.108683586120605 22.88854026794434 10.24540901184082 18.23631477355957 14.24084663391113 14.24086570739746 C 18.23629570007324 10.24541568756104 22.88852119445801 7.108702659606934 28.06829643249512 4.917840480804443 C 33.43022155761719 2.649940252304077 39.12687301635742 1.500015258789062 44.99999618530273 1.500015258789062 C 50.87311935424805 1.500015258789062 56.56977081298828 2.649940252304077 61.93169784545898 4.917840480804443 C 67.11147308349609 7.108702659606934 71.76369476318359 10.24541568756104 75.75914764404297 14.24086570739746 C 79.75458526611328 18.23631477355957 82.89131164550781 22.88854026794434 85.08216857910156 28.06830215454102 C 87.35007476806641 33.43024063110352 88.5 39.12689208984375 88.5 45.00001525878906 C 88.5 50.87313842773438 87.35007476806641 56.56978988647461 85.08216857910156 61.93172836303711 C 82.89131164550781 67.11150360107422 79.75458526611328 71.76371765136719 75.75914764404297 75.75916290283203 C 71.76369476318359 79.75461578369141 67.11147308349609 82.89134216308594 61.93169784545898 85.08219909667969 C 56.56977081298828 87.35010528564453 50.87311935424805 88.50003051757812 44.99999618530273 88.50003051757812 Z" stroke="none"/>
                    <path d="M 44.99999618530273 3 C 39.32870864868164 3 33.82865142822266 4.110061645507812 28.65262603759766 6.299346923828125 C 23.65165710449219 8.414573669433594 19.15968322753906 11.44334411621094 15.301513671875 15.301513671875 C 11.44333648681641 19.15968322753906 8.414566040039062 23.65165710449219 6.299339294433594 28.65262985229492 C 4.110054016113281 33.82867050170898 2.999992370605469 39.32872772216797 2.999992370605469 45.00001525878906 C 2.999992370605469 50.67130279541016 4.110054016113281 56.17136001586914 6.299339294433594 61.34738922119141 C 8.414566040039062 66.34835815429688 11.44333648681641 70.84033203125 15.301513671875 74.69850158691406 C 19.15968322753906 78.55667114257812 23.65165710449219 81.58544158935547 28.65262603759766 83.70067596435547 C 33.82865142822266 85.88996124267578 39.32870864868164 87.00001525878906 44.99999618530273 87.00001525878906 C 50.67128372192383 87.00001525878906 56.17134094238281 85.88996124267578 61.34736633300781 83.70067596435547 C 66.34834289550781 81.58544158935547 70.84030914306641 78.55667114257812 74.69847869873047 74.69850158691406 C 78.55665588378906 70.84033203125 81.58542633056641 66.34835815429688 83.70065307617188 61.34738922119141 C 85.88993835449219 56.17136001586914 87 50.67130279541016 87 45.00001525878906 C 87 39.32872772216797 85.88993835449219 33.82867050170898 83.70065307617188 28.65262985229492 C 81.58542633056641 23.65165710449219 78.55665588378906 19.15968322753906 74.69847869873047 15.301513671875 C 70.84030914306641 11.44334411621094 66.34834289550781 8.414573669433594 61.34736633300781 6.299346923828125 C 56.17134094238281 4.110061645507812 50.67128372192383 3 44.99999618530273 3 M 44.99999618530273 0 C 69.85281372070312 0 90 20.14718627929688 90 45.00001525878906 C 90 69.85282897949219 69.85281372070312 90.00001525878906 44.99999618530273 90.00001525878906 C 20.14717864990234 90.00001525878906 -7.62939453125e-06 69.85282897949219 -7.62939453125e-06 45.00001525878906 C -7.62939453125e-06 20.14718627929688 20.14717864990234 0 44.99999618530273 0 Z" stroke="none" fill="#088576"/>
                  </g>
                </g>
              </g>
            </g>
          </g>
        </g>
      </g>
    </g>
    <g id="Page-1" transform="translate(12.977 14.997)">
      <g id="_004---Male-Developer" data-name="004---Male-Developer">
        <path id="Shape" d="M54,24.01A4,4,0,0,1,50,28v2.18a4.008,4.008,0,0,1-1.37,3.02l-3.61,3.16-1.89,1.65A3.979,3.979,0,0,1,40.5,39h-3a3.979,3.979,0,0,1-2.63-.99l-1.89-1.65L29.37,33.2A4.008,4.008,0,0,1,28,30.18V28a3.99,3.99,0,0,1,0-7.98V20s0-9,6-7,6,4,14,3a4.333,4.333,0,0,1,2,4v.02A4,4,0,0,1,54,24.01Z" fill="#ffe0b2"/>
        <path id="Shape-2" data-name="Shape" d="M50,20.02V20a4.333,4.333,0,0,0-2-4c-1,.125-1.869.2-2.644.24A4.537,4.537,0,0,1,47,20v.02A3.99,3.99,0,1,1,47,28v2.18a4.008,4.008,0,0,1-1.37,3.02l-3.61,3.16-1.89,1.65A3.979,3.979,0,0,1,37.5,39h3a3.979,3.979,0,0,0,2.63-.99l1.89-1.65,3.61-3.16A4.008,4.008,0,0,0,50,30.18V28a3.99,3.99,0,1,0,0-7.98Z" fill="#dfc49c"/>
        <path id="Shape-3" data-name="Shape" d="M52,13.03c0,5.99-2,6.99-2,6.99V20a4.333,4.333,0,0,0-2-4c-8,1-8-1-14-3s-6,7-6,7v.02A15.549,15.549,0,0,1,27.02,18c-.83-2.02-1.74-5.22-.74-8A7.094,7.094,0,0,1,30,6.05s4.64-8.33,15.7-3.59a.5.5,0,0,1,.02.91,3.5,3.5,0,0,0-1.35,1.09.5.5,0,0,0,.24.78C46.49,5.85,52,8.07,52,13.03Z" fill="sienna"/>
        <path id="Shape-4" data-name="Shape" d="M44.61,5.24a.5.5,0,0,1-.24-.78,3.5,3.5,0,0,1,1.35-1.09.5.5,0,0,0-.02-.91A15.128,15.128,0,0,0,37.792,1.1,17.606,17.606,0,0,1,42.7,2.46a.5.5,0,0,1,.02.91,3.5,3.5,0,0,0-1.35,1.09.5.5,0,0,0,.24.78C43.49,5.85,49,8.07,49,13.03a18.613,18.613,0,0,1-.3,3.522A4.683,4.683,0,0,1,50,20v.02s2-1,2-6.99c0-4.96-5.51-7.18-7.39-7.79Z" fill="#783e22"/>
        <path id="Shape-5" data-name="Shape" d="M47,43s-2,3-8,3-8-3-8-3c1.58-1.58,1.92-4.61,1.98-6.64l1.89,1.65A3.979,3.979,0,0,0,37.5,39h3a3.979,3.979,0,0,0,2.63-.99l1.89-1.65C45.08,38.39,45.42,41.42,47,43Z" fill="#dfc49c"/>
        <path id="Shape-6" data-name="Shape" d="M59,57.93A1.007,1.007,0,0,1,58,59H20a1.007,1.007,0,0,1-1-1.07A23.278,23.278,0,0,1,20.88,50a10.518,10.518,0,0,1,1.91-3c2.86-3,8.2-4,8.2-4H31s2,3,8,3,8-3,8-3h.01s5.34,1,8.2,4C57.44,49.33,58.78,54.08,59,57.93Z" fill="#02a9f4"/>
        <path id="Shape-7" data-name="Shape" d="M55.21,47c-2.86-3-8.2-4-8.2-4H47a4.151,4.151,0,0,1-.6.651A14.642,14.642,0,0,1,52.21,47c2.23,2.33,3.57,7.08,3.79,10.93A1.007,1.007,0,0,1,55,59h3a1.007,1.007,0,0,0,1-1.07c-.22-3.85-1.56-8.6-3.79-10.93Z" fill="#0377bc"/>
        <path id="Shape-8" data-name="Shape" d="M32.98,36.36c-.06,2.03-.4,5.06-1.98,6.64h-.01s-5.34,1-8.2,4a10.518,10.518,0,0,0-1.91,3H4a3,3,0,0,1-3-3V18H27.02A15.549,15.549,0,0,0,28,20.02,3.99,3.99,0,0,0,28,28v2.18a4.008,4.008,0,0,0,1.37,3.02Z" fill="#f5f5f5"/>
        <path id="Shape-9" data-name="Shape" d="M29.37,33.2A4.008,4.008,0,0,1,28,30.18V28a3.99,3.99,0,0,1,0-7.98A15.549,15.549,0,0,1,27.02,18h-3A15.549,15.549,0,0,0,25,20.02,3.99,3.99,0,0,0,25,28v2.18a4.008,4.008,0,0,0,1.37,3.02l3.61,3.16c-.06,2.03-.4,5.06-1.98,6.64h-.01s-5.34,1-8.2,4a10.518,10.518,0,0,0-1.91,3h3a10.518,10.518,0,0,1,1.91-3c2.86-3,8.2-4,8.2-4H31c1.58-1.58,1.92-4.61,1.98-6.64Z" fill="#cfd8dc"/>
        <path id="Shape-10" data-name="Shape" d="M27.02,18H1V13a3,3,0,0,1,3-3H26.28C25.28,12.78,26.19,15.98,27.02,18Z" fill="#02a9f4"/>
        <path id="Shape-11" data-name="Shape" d="M26.28,10h-3c-1,2.78-.09,5.98.74,8h3C26.19,15.98,25.28,12.78,26.28,10Z" fill="#0377bc"/>
        <g id="Grupo_1202775" data-name="Grupo 1202775">
          <path id="Shape-12" data-name="Shape" d="M41,31H37a1,1,0,0,0,0,2h4a1,1,0,0,0,0-2Z"/>
          <path id="Shape-13" data-name="Shape" d="M40,34H38a1,1,0,0,0,0,2h2a1,1,0,0,0,0-2Z"/>
          <path id="Shape-14" data-name="Shape" d="M35,22H33a1,1,0,0,0,0,2,1,1,0,0,0,2,0,1,1,0,0,0,0-2Z"/>
          <path id="Shape-15" data-name="Shape" d="M45,22H43a1,1,0,0,0,0,2,1,1,0,0,0,2,0,1,1,0,0,0,0-2Z"/>
          <path id="Shape-16" data-name="Shape" d="M38,29h2a1,1,0,0,0,0-2H38a1,1,0,0,0,0,2Z"/>
          <path id="Shape-17" data-name="Shape" d="M4,51H19.392A25.306,25.306,0,0,0,18,57.878,2,2,0,0,0,20,60H58a2,2,0,0,0,2-2.122c-.217-3.868-1.556-8.945-4.059-11.568-2.656-2.783-7.135-3.94-8.4-4.222-.856-1.011-1.367-2.827-1.491-5.3L49.3,33.946A5,5,0,0,0,51,30.185V28.9a4.989,4.989,0,0,0,.826-9.537A13.557,13.557,0,0,0,53,13.035c0-5.062-4.916-7.563-7.324-8.483a2.465,2.465,0,0,1,.456-.267A1.5,1.5,0,0,0,46.1,1.537C35.532-2.984,30.293,3.8,29.3,5.286A8.1,8.1,0,0,0,25.626,9H4a4,4,0,0,0-4,4V47A4,4,0,0,0,4,51Zm0-2a2,2,0,0,1-2-2V19H26.363c.037.082.077.179.113.255A4.99,4.99,0,0,0,27,28.9v1.285a5,5,0,0,0,1.708,3.763l3.248,2.842c-.124,2.471-.635,4.287-1.491,5.3-1.268.282-5.747,1.439-8.4,4.222A11.119,11.119,0,0,0,20.243,49Zm54,9-38-.01c.189-3.388,1.369-8.056,3.51-10.3,2.095-2.2,5.754-3.253,7.123-3.586C31.58,45.078,34.069,47,39,47s7.421-1.923,8.367-2.9c1.367.331,5.021,1.383,7.123,3.587C56.631,49.934,57.811,54.6,58,58ZM45.677,42.965C44.835,43.718,42.837,45,39,45s-5.84-1.285-6.678-2.034a10.144,10.144,0,0,0,1.506-4.538l.382.335A5,5,0,0,0,37.5,40h3a5,5,0,0,0,3.293-1.237l.382-.335a10.152,10.152,0,0,0,1.5,4.537ZM53,24.009A3,3,0,0,1,50,27a1,1,0,0,0-1,1v2.185a3,3,0,0,1-1.025,2.258l-5.5,4.815A3,3,0,0,1,40.5,38h-3a3,3,0,0,1-1.975-.742l-5.5-4.815A3,3,0,0,1,29,30.185V28a1,1,0,0,0-1-1,2.982,2.982,0,0,1-1-5.8V23a1,1,0,0,0,2,0V20c0-1.229.362-4.677,2.016-5.869a2.814,2.814,0,0,1,2.668-.182A33.276,33.276,0,0,1,37.675,15.6c2.569,1.214,4.438,2.1,10.083,1.44A3.589,3.589,0,0,1,49,20v3a1,1,0,1,0,2,0V21.2a2.988,2.988,0,0,1,2,2.809ZM27.109,10.687a5.984,5.984,0,0,1,3.337-3.741,1.015,1.015,0,0,0,.426-.4A9.759,9.759,0,0,1,39.275,2,14.669,14.669,0,0,1,44.4,3.01a4.513,4.513,0,0,0-.831.848A1.5,1.5,0,0,0,44.3,6.186C45.875,6.7,51,8.7,51,13.035a14.9,14.9,0,0,1-.529,4.356A4.862,4.862,0,0,0,48.447,15.1a.983.983,0,0,0-.571-.1c-5.351.668-6.855-.042-9.346-1.219a34.928,34.928,0,0,0-4.214-1.738,4.727,4.727,0,0,0-4.469.457,6.9,6.9,0,0,0-2.354,3.877,9.941,9.941,0,0,1-.384-5.695ZM4,11H25.008a12.6,12.6,0,0,0,.584,6H2V13a2,2,0,0,1,2-2Z"/>
          <circle id="Oval" cx="1" cy="1" r="1" transform="translate(4 13)"/>
          <circle id="Oval-2" data-name="Oval" cx="1" cy="1" r="1" transform="translate(8 13)"/>
          <circle id="Oval-3" data-name="Oval" cx="1" cy="1" r="1" transform="translate(12 13)"/>
          <path id="Shape-18" data-name="Shape" d="M8,21H6a1,1,0,0,0,0,2H8a1,1,0,0,0,0-2Z"/>
          <path id="Shape-19" data-name="Shape" d="M12,23h8a1,1,0,0,0,0-2H12a1,1,0,0,0,0,2Z"/>
          <path id="Shape-20" data-name="Shape" d="M8,25H6a1,1,0,0,0,0,2H8a1,1,0,0,0,0-2Z"/>
          <path id="Shape-21" data-name="Shape" d="M12,27h8a1,1,0,0,0,0-2H12a1,1,0,0,0,0,2Z"/>
          <path id="Shape-22" data-name="Shape" d="M8,29H6a1,1,0,0,0,0,2H8a1,1,0,0,0,0-2Z"/>
          <path id="Shape-23" data-name="Shape" d="M12,31h8a1,1,0,0,0,0-2H12a1,1,0,0,0,0,2Z"/>
          <path id="Shape-24" data-name="Shape" d="M8,33H6a1,1,0,0,0,0,2H8a1,1,0,0,0,0-2Z"/>
          <path id="Shape-25" data-name="Shape" d="M18,34a1,1,0,0,0,1,1h5a1,1,0,0,0,0-2H19A1,1,0,0,0,18,34Z"/>
          <path id="Shape-26" data-name="Shape" d="M12,35h3a1,1,0,0,0,0-2H12a1,1,0,0,0,0,2Z"/>
          <path id="Shape-27" data-name="Shape" d="M8,37H6a1,1,0,0,0,0,2H8a1,1,0,0,0,0-2Z"/>
          <path id="Shape-28" data-name="Shape" d="M12,39h9a1,1,0,0,0,0-2H12a1,1,0,0,0,0,2Z"/>
          <path id="Shape-29" data-name="Shape" d="M24,38a1,1,0,0,0,1,1h3a1,1,0,0,0,0-2H25A1,1,0,0,0,24,38Z"/>
          <path id="Shape-30" data-name="Shape" d="M8,41H6a1,1,0,0,0,0,2H8a1,1,0,0,0,0-2Z"/>
          <path id="Shape-31" data-name="Shape" d="M12,43H23a1,1,0,0,0,0-2H12a1,1,0,0,0,0,2Z"/>
          <path id="Shape-32" data-name="Shape" d="M8,45H6a1,1,0,0,0,0,2H8a1,1,0,0,0,0-2Z"/>
          <path id="Shape-33" data-name="Shape" d="M18,45H12a1,1,0,0,0,0,2h6a1,1,0,0,0,0-2Z"/>
          <path id="Shape-34" data-name="Shape" d="M36,21a1,1,0,0,0,0-2H32a1,1,0,0,0,0,2Z"/>
          <path id="Shape-35" data-name="Shape" d="M46,19H42a1,1,0,0,0,0,2h4a1,1,0,0,0,0-2Z"/>
          <path id="Shape-36" data-name="Shape" d="M34.707,50.293a1,1,0,0,0-1.414,0l-2,2a1,1,0,0,0,0,1.414l2,2a1,1,0,0,0,1.414-1.414L33.414,53l1.293-1.293A1,1,0,0,0,34.707,50.293Z"/>
          <path id="Shape-37" data-name="Shape" d="M44.707,50.293a1,1,0,0,0-1.414,1.414L44.586,53l-1.293,1.293a1,1,0,1,0,1.414,1.414l2-2a1,1,0,0,0,0-1.414Z"/>
          <path id="Shape-38" data-name="Shape" d="M40.447,50.1a1,1,0,0,0-1.342.448l-2,4a1,1,0,0,0,1.79.894l2-4a1,1,0,0,0-.448-1.342Z"/>
        </g>
      </g>
    </g>
  </g>
</svg>
