<svg xmlns="http://www.w3.org/2000/svg" xmlns:xlink="http://www.w3.org/1999/xlink" width="103" height="103" viewBox="0 0 103 103">
  <defs>
    <filter id="Trazado_978624" x="0" y="0" width="103" height="103" filterUnits="userSpaceOnUse">
      <feOffset dy="3" input="SourceAlpha"/>
      <feGaussianBlur stdDeviation="3" result="blur"/>
      <feFlood flood-opacity="0.161"/>
      <feComposite operator="in" in2="blur"/>
      <feComposite in="SourceGraphic"/>
    </filter>
  </defs>
  <g id="Grupo_1202745" data-name="Grupo 1202745" transform="translate(-171 -2866)">
    <g id="Grupo_1176881" data-name="Grupo 1176881">
      <g id="Grupo_1175148" data-name="Grupo 1175148" transform="translate(0 1580)">
        <g id="Grupo_1173798" data-name="Grupo 1173798" transform="translate(-3 -3520)">
          <g id="Grupo_1171925" data-name="Grupo 1171925" transform="translate(-22 -2246)">
            <g id="Grupo_1164524" data-name="Grupo 1164524" transform="translate(205 7058)">
              <g id="Grupo_1144123" data-name="Grupo 1144123">
                <g transform="matrix(1, 0, 0, 1, -9, -6)" filter="url(#Trazado_978624)">
                  <g id="Trazado_978624-2" data-name="Trazado 978624" transform="translate(9 6)" fill="#f6ecfe">
                    <path d="M 42.5 83.5 C 36.96437835693359 83.5 31.59512901306152 82.41617584228516 26.54141235351562 80.27863311767578 C 21.65934181213379 78.21369171142578 17.27447128295898 75.25723266601562 13.50862312316895 71.49137878417969 C 9.742764472961426 67.72553253173828 6.786305904388428 63.34066009521484 4.721364498138428 58.45858764648438 C 2.583823442459106 53.40486907958984 1.5 48.03562164306641 1.5 42.5 C 1.5 36.96437835693359 2.583823442459106 31.59512901306152 4.721364498138428 26.54141235351562 C 6.786305904388428 21.65934181213379 9.742764472961426 17.27447128295898 13.50862312316895 13.50862312316895 C 17.27447128295898 9.742764472961426 21.65934181213379 6.786305904388428 26.54141235351562 4.721364498138428 C 31.59512901306152 2.583823442459106 36.96437835693359 1.5 42.5 1.5 C 48.03562164306641 1.5 53.40486907958984 2.583823442459106 58.45858764648438 4.721364498138428 C 63.34066009521484 6.786305904388428 67.72553253173828 9.742764472961426 71.49137878417969 13.50862312316895 C 75.25723266601562 17.27447128295898 78.21369171142578 21.65934181213379 80.27863311767578 26.54141235351562 C 82.41617584228516 31.59512901306152 83.5 36.96437835693359 83.5 42.5 C 83.5 48.03562164306641 82.41617584228516 53.40486907958984 80.27863311767578 58.45858764648438 C 78.21369171142578 63.34066009521484 75.25723266601562 67.72553253173828 71.49137878417969 71.49137878417969 C 67.72553253173828 75.25723266601562 63.34066009521484 78.21369171142578 58.45858764648438 80.27863311767578 C 53.40486907958984 82.41617584228516 48.03562164306641 83.5 42.5 83.5 Z" stroke="none"/>
                    <path d="M 42.5 3 C 37.16621398925781 3 31.99356079101562 4.043960571289062 27.125732421875 6.102882385253906 C 22.42246627807617 8.092185974121094 18.19785308837891 10.94070434570312 14.56928253173828 14.56928253173828 C 10.94070434570312 18.19785308837891 8.092185974121094 22.42246627807617 6.102882385253906 27.125732421875 C 4.043960571289062 31.99356079101562 3 37.16621398925781 3 42.5 C 3 47.83378601074219 4.043960571289062 53.00643920898438 6.102882385253906 57.87425231933594 C 8.092185974121094 62.57753372192383 10.94070434570312 66.80213165283203 14.56928253173828 70.43071746826172 C 18.19786834716797 74.05929565429688 22.42246627807617 76.90781402587891 27.125732421875 78.89711761474609 C 31.99356079101562 80.95603942871094 37.16621398925781 82 42.5 82 C 47.83378601074219 82 53.00642395019531 80.95603942871094 57.87425231933594 78.89711761474609 C 62.57753372192383 76.90781402587891 66.80213165283203 74.05929565429688 70.43071746826172 70.43071746826172 C 74.05929565429688 66.80213165283203 76.90781402587891 62.57753372192383 78.89711761474609 57.87425231933594 C 80.95603942871094 53.00642395019531 82 47.83378601074219 82 42.5 C 82 37.16621398925781 80.95603942871094 31.99356079101562 78.89711761474609 27.125732421875 C 76.90781402587891 22.42246627807617 74.05929565429688 18.19786834716797 70.43071746826172 14.56928253173828 C 66.80213165283203 10.94070434570312 62.57753372192383 8.092185974121094 57.87425231933594 6.102882385253906 C 53.00643920898438 4.043960571289062 47.83378601074219 3 42.5 3 M 42.5 0 C 65.97209167480469 0 85 19.02789306640625 85 42.5 C 85 65.97209167480469 65.97209167480469 85 42.5 85 C 19.02789306640625 85 0 65.97209167480469 0 42.5 C 0 19.02789306640625 19.02789306640625 0 42.5 0 Z" stroke="none" fill="#aa52f9"/>
                  </g>
                </g>
              </g>
            </g>
          </g>
        </g>
      </g>
    </g>
    <g id="Programmer-Developer-Software-Development-Application" transform="translate(192.163 2884.163)">
      <path id="Trazado_999040" data-name="Trazado 999040" d="M45.337,45.1v5.866a3.783,3.783,0,0,1-3.778,3.778,3.885,3.885,0,0,1-.86-.1l-.085-.019V41.565a.945.945,0,0,0-.945-.945h-17a.945.945,0,0,0-.945.945V54.619l-.076.019a3.9,3.9,0,0,1-.869.1A3.783,3.783,0,0,1,17,50.963V45.1a9.446,9.446,0,0,1,4.685-8.152l4.789-2.8h9.389l4.789,2.8A9.446,9.446,0,0,1,45.337,45.1Z" transform="translate(-0.831 -1.782)" fill="#5aaae7"/>
      <path id="Trazado_999041" data-name="Trazado 999041" d="M16.026,12.021a5.818,5.818,0,0,1-.567,1.37l1.105,1.842-1.332,1.332L13.39,15.459a5.818,5.818,0,0,1-1.37.567l-.52,2.087H9.612l-.52-2.087a5.818,5.818,0,0,1-1.37-.567L5.881,16.564,4.549,15.232,5.654,13.39a5.818,5.818,0,0,1-.567-1.37L3,11.5V9.612l2.087-.52a5.818,5.818,0,0,1,.567-1.37L4.549,5.881,5.881,4.549,7.723,5.654a5.818,5.818,0,0,1,1.37-.567L9.612,3H11.5l.52,2.087a5.818,5.818,0,0,1,1.37.567l1.842-1.105,1.332,1.332L15.459,7.723a5.818,5.818,0,0,1,.567,1.37l2.087.52V11.5Z" transform="translate(-0.055 -0.055)" fill="#ff9811"/>
      <ellipse id="Elipse_12270" data-name="Elipse 12270" cx="2" cy="1.5" rx="2" ry="1.5" transform="translate(49 28)" fill="#ff9811"/>
      <circle id="Elipse_12271" data-name="Elipse 12271" cx="1.5" cy="1.5" r="1.5" transform="translate(8 28)" fill="#ff9811"/>
      <circle id="Elipse_12272" data-name="Elipse 12272" cx="2.5" cy="2.5" r="2.5" transform="translate(8 8)" fill="#ee8700"/>
      <path id="Trazado_999042" data-name="Trazado 999042" d="M40.891,57v1.889A1.9,1.9,0,0,1,39,60.778H23.889A1.9,1.9,0,0,1,22,58.889V57Z" transform="translate(-1.109 -3.049)" fill="#c6c5ca"/>
      <path id="Trazado_999043" data-name="Trazado 999043" d="M34.667,29.48V32.8l-2.834,3.778L29,32.8V29.48l2.834.491a8.312,8.312,0,0,0,2.834-.491Z" transform="translate(-1.497 -1.523)" fill="#ffc477"/>
      <path id="Trazado_999044" data-name="Trazado 999044" d="M40.891,41.945V56.113H22V41.945A.945.945,0,0,1,22.945,41h17A.945.945,0,0,1,40.891,41.945Z" transform="translate(-1.109 -2.162)" fill="#e6e7e8"/>
      <path id="Trazado_999045" data-name="Trazado 999045" d="M34.834,33a2.141,2.141,0,0,1,2.059,2.72l-.737,2.569a.945.945,0,0,1-.907.69.91.91,0,0,1-.567-.189L32,36.778Z" transform="translate(-1.663 -1.718)" fill="#1e81ce"/>
      <path id="Trazado_999046" data-name="Trazado 999046" d="M28.874,33l2.834,3.778L29.026,38.79a.945.945,0,0,1-1.474-.5l-.737-2.569A2.141,2.141,0,0,1,28.874,33Z" transform="translate(-1.371 -1.718)" fill="#1e81ce"/>
      <path id="Trazado_999047" data-name="Trazado 999047" d="M25.834,11.95v.718A3.771,3.771,0,0,1,23,16.323V10.778A3.778,3.778,0,0,1,26.778,7h9.446A3.778,3.778,0,0,1,40,10.778v5.545a3.771,3.771,0,0,1-2.834-3.655V11.95a.938.938,0,0,0-1.237-.888,14.58,14.58,0,0,1-4.43.661,14.58,14.58,0,0,1-4.43-.661.938.938,0,0,0-1.237.888Z" transform="translate(-1.164 -0.277)" fill="#57565c"/>
      <path id="Trazado_999048" data-name="Trazado 999048" d="M41,21.723V17h1.417a2.361,2.361,0,0,1,0,4.723Z" transform="translate(-2.162 -0.831)" fill="#ffb655"/>
      <path id="Trazado_999049" data-name="Trazado 999049" d="M22.778,17v4.723H21.361a2.361,2.361,0,0,1,0-4.723Z" transform="translate(-0.942 -0.831)" fill="#ffb655"/>
      <path id="Trazado_999050" data-name="Trazado 999050" d="M34.667,29.48v2.834a8.42,8.42,0,0,1-5.667,0V29.48l2.834.491a8.312,8.312,0,0,0,2.834-.491Z" transform="translate(-1.497 -1.523)" fill="#ffb655"/>
      <path id="Trazado_999051" data-name="Trazado 999051" d="M37.169,12.9v-.718a.938.938,0,0,0-1.237-.888,14.58,14.58,0,0,1-4.43.661,14.58,14.58,0,0,1-4.43-.661.938.938,0,0,0-1.237.888V12.9A3.771,3.771,0,0,1,23,16.558V21.4a8.5,8.5,0,0,0,17,0V16.558A3.771,3.771,0,0,1,37.169,12.9Z" transform="translate(-1.164 -0.513)" fill="#ffc477"/>
      <ellipse id="Elipse_12273" data-name="Elipse 12273" cx="2" cy="1.5" rx="2" ry="1.5" transform="translate(28 45)" fill="#d8d7da"/>
      <path id="Trazado_999052" data-name="Trazado 999052" d="M40.557,57.007a2.834,2.834,0,0,0,.17-.945V54.126A4.723,4.723,0,0,0,45.45,49.4V43.537a10.406,10.406,0,0,0-5.157-8.964l-4.6-2.692a.5.5,0,0,1-.057-.094,3.124,3.124,0,0,0-1.521-1.067v-.954a9.468,9.468,0,0,0,5.62-7.708h.52a3.306,3.306,0,1,0,0-6.612h-.472V10.723A4.723,4.723,0,0,0,35.06,6H25.614a4.723,4.723,0,0,0-4.723,4.723v4.723h-.472a3.306,3.306,0,0,0,0,6.612h.52a9.468,9.468,0,0,0,5.62,7.708v.954a3.124,3.124,0,0,0-1.521,1.067.5.5,0,0,1-.057.094l-4.6,2.692a10.406,10.406,0,0,0-5.157,8.964V49.4a4.723,4.723,0,0,0,4.723,4.723v1.936a2.834,2.834,0,0,0,.17.945H2V58.9H58.674V57.007Zm-.775-39.672h.472a1.417,1.417,0,1,1,0,2.834h-.472ZM20.891,20.169h-.472a1.417,1.417,0,1,1,0-2.834h.472ZM34.125,32.92a1.157,1.157,0,0,1,.189,1.048l-.727,2.569-1.927-1.445,1.927-2.569A1.121,1.121,0,0,1,34.125,32.92Zm-1.672,5.129c.038.028.085.038.132.066h-4.5c.047-.028.094-.038.132-.066l2.116-1.587Zm-4-6.858V30.37a9.54,9.54,0,0,0,3.778,0v.822L30.337,33.7ZM22.78,10.723a2.842,2.842,0,0,1,2.834-2.834H35.06a2.842,2.842,0,0,1,2.834,2.834v3.986a2.82,2.82,0,0,1-.945-2.1v-.718a1.87,1.87,0,0,0-.765-1.511,1.9,1.9,0,0,0-1.71-.274,14.513,14.513,0,0,1-8.274,0,1.9,1.9,0,0,0-1.71.274,1.87,1.87,0,0,0-.765,1.511v.718a2.82,2.82,0,0,1-.945,2.1Zm0,10.39V16.938a4.736,4.736,0,0,0,2.834-4.326l.009-.708a16.221,16.221,0,0,0,9.436-.009v.718a4.736,4.736,0,0,0,2.834,4.326v4.175a7.557,7.557,0,1,1-15.113,0ZM26.549,32.92a1.167,1.167,0,0,1,.538-.4l1.927,2.569-1.927,1.445-.737-2.569a1.219,1.219,0,0,1,.2-1.048ZM19.947,40v6.612H18.058v1.889h1.889v3.731A2.842,2.842,0,0,1,17.113,49.4V43.537A8.542,8.542,0,0,1,21.326,36.2l3.193-1.861c.009.047.009.1.019.151l.737,2.569a1.881,1.881,0,0,0,.784,1.058H21.836A1.9,1.9,0,0,0,19.947,40ZM38.838,56.062a.945.945,0,0,1-.945.945H22.78a.945.945,0,0,1-.945-.945v-.945h17Zm0-2.834h-17V40h17Zm0-15.113H34.616a1.849,1.849,0,0,0,.784-1.058l.737-2.569c.009-.047.009-.094.019-.151L39.348,36.2a8.542,8.542,0,0,1,4.213,7.339V49.4a2.842,2.842,0,0,1-2.834,2.834V48.506h1.889V46.616H40.727V40a1.9,1.9,0,0,0-1.889-1.889Z" transform="translate(0 -0.222)"/>
      <path id="Trazado_999053" data-name="Trazado 999053" d="M34.94,25.667l-1.25-1.417a2.905,2.905,0,0,1-3.748,0l-1.25,1.417A4.723,4.723,0,0,0,34.94,25.667Z" transform="translate(-1.48 -1.233)"/>
      <ellipse id="Elipse_12274" data-name="Elipse 12274" cx="1.5" cy="2" rx="1.5" ry="2" transform="translate(25 17)"/>
      <circle id="Elipse_12275" data-name="Elipse 12275" cx="2" cy="2" r="2" transform="translate(32 17)"/>
      <path id="Trazado_999054" data-name="Trazado 999054" d="M31.834,51.667A2.834,2.834,0,1,0,29,48.834,2.834,2.834,0,0,0,31.834,51.667Zm0-3.778a.945.945,0,1,1-.945.945A.945.945,0,0,1,31.834,47.889Z" transform="translate(-1.497 -2.439)"/>
      <path id="Trazado_999055" data-name="Trazado 999055" d="M2.715,12.362l1.576.395c.067.183.142.365.225.542L3.68,14.69a.945.945,0,0,0,.142,1.153L5.158,17.18a.945.945,0,0,0,1.154.143L7.7,16.488c.178.082.358.157.543.224l.394,1.575A.945.945,0,0,0,9.557,19h1.889a.945.945,0,0,0,.916-.716l.394-1.575c.189-.067.366-.142.543-.224l1.391.835a.945.945,0,0,0,1.154-.143l1.336-1.337a.945.945,0,0,0,.142-1.153L16.487,13.3c.083-.178.158-.359.225-.542l1.576-.395A.945.945,0,0,0,19,11.446V9.557a.945.945,0,0,0-.715-.916l-1.576-.395q-.1-.277-.225-.542l.835-1.392a.945.945,0,0,0-.142-1.153L15.845,3.822a.945.945,0,0,0-1.154-.143L13.3,4.514c-.178-.082-.358-.157-.543-.224l-.394-1.575A.945.945,0,0,0,11.446,2H9.557a.945.945,0,0,0-.916.716L8.246,4.291c-.189.067-.366.142-.543.224L6.312,3.679a.945.945,0,0,0-1.154.143L3.822,5.158A.945.945,0,0,0,3.68,6.311L4.515,7.7q-.125.266-.225.542L2.715,8.64A.945.945,0,0,0,2,9.557v1.889a.945.945,0,0,0,.715.916Zm1.174-2.069L5.262,9.95a.945.945,0,0,0,.683-.672,4.723,4.723,0,0,1,.472-1.133.945.945,0,0,0-.008-.96L5.684,5.972l.292-.293,1.212.727a.945.945,0,0,0,.952.008,4.707,4.707,0,0,1,1.133-.472.945.945,0,0,0,.671-.684l.35-1.369h.414l.344,1.372a.945.945,0,0,0,.671.684,4.707,4.707,0,0,1,1.133.472.945.945,0,0,0,.96-.008l1.219-.725.292.293L14.6,7.189a.945.945,0,0,0-.012.951,4.723,4.723,0,0,1,.472,1.133.945.945,0,0,0,.683.672l1.37.349v.416l-1.372.343a.945.945,0,0,0-.683.672,4.723,4.723,0,0,1-.472,1.133.945.945,0,0,0,.008.96l.725,1.218-.293.292L13.815,14.6a.95.95,0,0,0-.96-.008,4.707,4.707,0,0,1-1.133.472.945.945,0,0,0-.671.684l-.343,1.364h-.414L9.95,15.742a.945.945,0,0,0-.671-.684,4.707,4.707,0,0,1-1.133-.472.945.945,0,0,0-.96.008l-1.214.725-.289-.283.726-1.212a.945.945,0,0,0,0-.961,4.723,4.723,0,0,1-.472-1.133.945.945,0,0,0-.683-.672l-1.37-.349Z"/>
      <path id="Trazado_999056" data-name="Trazado 999056" d="M10.778,14.557A3.778,3.778,0,1,0,7,10.778,3.778,3.778,0,0,0,10.778,14.557Zm0-5.667a1.889,1.889,0,1,1-1.889,1.889A1.889,1.889,0,0,1,10.778,8.889Z" transform="translate(-0.277 -0.277)"/>
      <path id="Trazado_999057" data-name="Trazado 999057" d="M49.11,14.3l1.336-1.336L48.28,10.795l2.166-2.166L49.11,7.293l-2.834,2.834a.945.945,0,0,0,0,1.336Z" transform="translate(-2.439 -0.293)"/>
      <path id="Trazado_999058" data-name="Trazado 999058" d="M58.629,14.3l2.834-2.834a.945.945,0,0,0,0-1.336L58.629,7.293,57.293,8.629l2.166,2.166L57.293,12.96Z" transform="translate(-3.065 -0.293)"/>
      <rect id="Rectángulo_412308" data-name="Rectángulo 412308" width="7.789" height="1.888" transform="matrix(0.242, -0.97, 0.97, 0.242, 49.257, 14.05)"/>
      <path id="Trazado_999059" data-name="Trazado 999059" d="M46,29.557v1.889h4.9a2.827,2.827,0,1,0,3.6-3.6V22H52.612v5.841A2.834,2.834,0,0,0,50.9,29.557Zm7.557,0a.945.945,0,1,1-.945.945A.945.945,0,0,1,53.557,29.557Z" transform="translate(-2.439 -1.109)"/>
      <path id="Trazado_999060" data-name="Trazado 999060" d="M8.889,22v5.841a2.827,2.827,0,1,0,3.6,3.6h4.9V29.557h-4.9a2.834,2.834,0,0,0-1.715-1.715V22Zm.945,9.446a.945.945,0,1,1,.945-.945A.945.945,0,0,1,9.834,31.446Z" transform="translate(-0.277 -1.109)"/>
    </g>
  </g>
</svg>
