<svg xmlns="http://www.w3.org/2000/svg" xmlns:xlink="http://www.w3.org/1999/xlink" width="108" height="108" viewBox="0 0 108 108">
  <defs>
    <filter id="Trazado_904820" x="0" y="0" width="108" height="108" filterUnits="userSpaceOnUse">
      <feOffset dy="3" input="SourceAlpha"/>
      <feGaussianBlur stdDeviation="3" result="blur"/>
      <feFlood flood-opacity="0.161"/>
      <feComposite operator="in" in2="blur"/>
      <feComposite in="SourceGraphic"/>
    </filter>
  </defs>
  <g id="Grupo_1202563" data-name="Grupo 1202563" transform="translate(9 6)">
    <g id="Grupo_1178464" data-name="Grupo 1178464" transform="translate(0 0)">
      <g id="Grupo_1173585" data-name="Grupo 1173585">
        <g id="Grupo_1173428" data-name="Grupo 1173428">
          <g id="Grupo_1171958" data-name="Grupo 1171958">
            <g id="Grupo_1167341" data-name="Grupo 1167341">
              <g id="Grupo_1166792" data-name="Grupo 1166792">
                <g transform="matrix(1, 0, 0, 1, -9, -6)" filter="url(#Trazado_904820)">
                  <g id="Trazado_904820-2" data-name="Trazado 904820" transform="translate(9 6)" fill="#e5ebfb">
                    <path d="M 44.99999618530273 88.49996185302734 C 39.12687301635742 88.49996185302734 33.43022155761719 87.35003662109375 28.06829643249512 85.08213806152344 C 22.88852119445801 82.89127349853516 18.23629570007324 79.75456237792969 14.24084663391113 75.75910949707031 C 10.24540901184082 71.76365661621094 7.108683586120605 67.1114501953125 4.917821407318115 61.93167114257812 C 2.649921178817749 56.56974792480469 1.499996185302734 50.87310791015625 1.499996185302734 44.99998474121094 C 1.499996185302734 39.12686157226562 2.649921178817749 33.43022155761719 4.917821407318115 28.06829643249512 C 7.108683586120605 22.88852310180664 10.24540901184082 18.23630905151367 14.24084663391113 14.24085998535156 C 18.23629570007324 10.24540996551514 22.88852119445801 7.108697414398193 28.06829643249512 4.917834758758545 C 33.43022155761719 2.649934768676758 39.12687301635742 1.500009775161743 44.99999618530273 1.500009775161743 C 50.87311935424805 1.500009775161743 56.56977081298828 2.649934768676758 61.93169784545898 4.917834758758545 C 67.11147308349609 7.108697414398193 71.76369476318359 10.24540996551514 75.75914764404297 14.24085998535156 C 79.75458526611328 18.23630905151367 82.89131164550781 22.88852310180664 85.08216857910156 28.06829643249512 C 87.35007476806641 33.43022155761719 88.5 39.12686157226562 88.5 44.99998474121094 C 88.5 50.87310791015625 87.35007476806641 56.56974792480469 85.08216857910156 61.93167114257812 C 82.89131164550781 67.1114501953125 79.75458526611328 71.76365661621094 75.75914764404297 75.75910949707031 C 71.76369476318359 79.75456237792969 67.11147308349609 82.89127349853516 61.93169784545898 85.08213806152344 C 56.56977081298828 87.35003662109375 50.87311935424805 88.49996185302734 44.99999618530273 88.49996185302734 Z" stroke="none"/>
                    <path d="M 44.99999618530273 3 C 39.32870864868164 3 33.82865142822266 4.110054016113281 28.65262603759766 6.299339294433594 C 23.65165710449219 8.414573669433594 19.15968322753906 11.44334411621094 15.301513671875 15.301513671875 C 11.44333648681641 19.15968322753906 8.414566040039062 23.65164184570312 6.299339294433594 28.65261459350586 C 4.110054016113281 33.82865524291992 2.999992370605469 39.32869720458984 2.999992370605469 44.99998474121094 C 2.999992370605469 50.67127227783203 4.110054016113281 56.17131423950195 6.299339294433594 61.34734344482422 C 8.414566040039062 66.34831237792969 11.44333648681641 70.84027099609375 15.301513671875 74.69845581054688 C 19.15968322753906 78.55662536621094 23.65165710449219 81.58538818359375 28.65262603759766 83.70063018798828 C 33.82865142822266 85.88990020751953 39.32870864868164 86.99995422363281 44.99999618530273 86.99995422363281 C 50.67128372192383 86.99995422363281 56.17134094238281 85.88990020751953 61.34736633300781 83.70063018798828 C 66.34834289550781 81.58538818359375 70.84030914306641 78.55662536621094 74.69847869873047 74.69845581054688 C 78.55665588378906 70.84027099609375 81.58542633056641 66.34831237792969 83.70065307617188 61.34734344482422 C 85.88993835449219 56.17131423950195 87 50.67127227783203 87 44.99998474121094 C 87 39.32869720458984 85.88993835449219 33.82865524291992 83.70065307617188 28.65261459350586 C 81.58542633056641 23.65164184570312 78.55665588378906 19.15968322753906 74.69847869873047 15.301513671875 C 70.84030914306641 11.44334411621094 66.34834289550781 8.414573669433594 61.34736633300781 6.299339294433594 C 56.17134094238281 4.110054016113281 50.67128372192383 3 44.99999618530273 3 M 44.99999618530273 0 C 69.85281372070312 0 90 20.14718627929688 90 44.99998474121094 C 90 69.852783203125 69.85281372070312 89.99995422363281 44.99999618530273 89.99995422363281 C 20.14717864990234 89.99995422363281 -7.62939453125e-06 69.852783203125 -7.62939453125e-06 44.99998474121094 C -7.62939453125e-06 20.14718627929688 20.14717864990234 0 44.99999618530273 0 Z" stroke="none" fill="#0b47db"/>
                  </g>
                </g>
              </g>
            </g>
          </g>
        </g>
      </g>
    </g>
    <g id="coder_4941480" transform="translate(16.684 13.684)">
      <path id="Trazado_1048497" data-name="Trazado 1048497" d="M23.574,256C14.413,256,8,266.063,8,280.736V284.4H39.148v-3.665C39.148,266.063,32.736,256,23.574,256Z" transform="translate(-7.084 -226.684)" fill="#fdbf44"/>
      <g id="Grupo_1202773" data-name="Grupo 1202773" transform="translate(4.581 1.177)">
        <path id="Trazado_1048498" data-name="Trazado 1048498" d="M0,0H2.29a2.29,2.29,0,0,1,2.29,2.29V4.123a2.29,2.29,0,0,1-2.29,2.29H0Z" transform="translate(4.581 18.062) rotate(180)" fill="#ffd4cf"/>
        <rect id="Rect치ngulo_417961" data-name="Rect치ngulo 417961" width="20.26" height="14.632" rx="7.316" transform="translate(2.224 0)" fill="#fa5d3f"/>
        <path id="Trazado_1048499" data-name="Trazado 1048499" d="M208,112h2.29a2.29,2.29,0,0,1,2.29,2.29v1.832a2.29,2.29,0,0,1-2.29,2.29H208Z" transform="translate(-188.761 -100.351)" fill="#ffd4cf"/>
        <path id="Trazado_1048500" data-name="Trazado 1048500" d="M104,212.594a5.963,5.963,0,0,0,9.161,0l-1.832-7.329h-5.5Z" transform="translate(-96.671 -182.936)" fill="#ffd4cf"/>
        <path id="Trazado_1048501" data-name="Trazado 1048501" d="M119.638,205.265h-5.5l-.758,3.031.12.075a6.413,6.413,0,0,0,6.773.016l.123-.076Z" transform="translate(-104.979 -182.936)" fill="#fbb8b0"/>
        <path id="Trazado_1048502" data-name="Trazado 1048502" d="M80,68.581,84.581,64l.08.133a9.161,9.161,0,0,0,7.856,4.448h2.141v6.934a5.726,5.726,0,0,1-2.714,4.869L89.751,81.74a4.581,4.581,0,0,1-4.838-.011L82.691,80.34A5.726,5.726,0,0,1,80,75.485Z" transform="translate(-75.419 -57.848)" fill="#ffd4cf"/>
      </g>
      <g id="Grupo_1202774" data-name="Grupo 1202774" transform="translate(26.568 31.148)">
        <path id="Trazado_1048503" data-name="Trazado 1048503" d="M232,272h31.148v20.155H232Z" transform="translate(-232 -272)" fill="#f2faff"/>
        <path id="Trazado_1048504" data-name="Trazado 1048504" d="M330.077,454.413H320v-1.832L321.832,448h6.413l1.832,4.581Z" transform="translate(-309.923 -427.845)" fill="#25b1fa"/>
      </g>
      <path id="Trazado_1048505" data-name="Trazado 1048505" d="M292.826,24C285.742,24,280,28.1,280,33.161a6.662,6.662,0,0,0,1.832,4.581L280,46.9l9.707-4.853a17.765,17.765,0,0,0,3.119.273c7.084,0,12.826-4.1,12.826-9.161S299.909,24,292.826,24Z" transform="translate(-247.935 -21.252)" fill="#f2faff"/>
      <rect id="Rect치ngulo_417962" data-name="Rect치ngulo 417962" width="25.888" height="11.256" rx="5.628" transform="translate(6.805 46.2)" fill="#25b1fa"/>
      <path id="Trazado_1048509" data-name="Trazado 1048509" d="M57.716,30.232H26.568a.916.916,0,0,0-.916.916v1.041a14.005,14.005,0,0,0-3.971-2.694l-1.1-4.382,1-.621a6.594,6.594,0,0,0,3.019-4.337h1.5a3.21,3.21,0,0,0,3.206-3.206V15.116a3.211,3.211,0,0,0-2.711-3.168A8.244,8.244,0,0,0,19.239,0H17.407V1.832h1.832a6.42,6.42,0,0,1,6.413,6.413,6.337,6.337,0,0,1-.961,3.38.916.916,0,0,0-.871-.632H21.678a8.287,8.287,0,0,1-7.07-4l-.08-.133a.916.916,0,0,0-1.434-.177L8.514,11.262a.916.916,0,0,0-.223.364,6.337,6.337,0,0,1-.961-3.381,6.42,6.42,0,0,1,6.413-6.413h1.832V0H13.742A8.244,8.244,0,0,0,6.376,11.948a3.212,3.212,0,0,0-2.711,3.168v1.832a3.21,3.21,0,0,0,3.206,3.206H8.38a6.6,6.6,0,0,0,2.987,4.291l1.034.646-1.1,4.4c-3.556,1.583-6.482,4.812-8.475,9.358l1.678.735c1.66-3.789,4-6.551,6.8-8.055a6.879,6.879,0,0,0,10.378,0,13.315,13.315,0,0,1,3.972,3.348V45.807H17.407v1.832H31.836a.229.229,0,0,1,.229.229v8.7a.229.229,0,0,1-.229.229H8.474a.229.229,0,0,1-.229-.229v-8.7a.229.229,0,0,1,.229-.229h7.1V45.807h-5.5V39.394H8.245v6.426a2.064,2.064,0,0,0-1.832,2.049v8.7a2.072,2.072,0,0,0,.013.229H1.832V54.052A38.233,38.233,0,0,1,3.745,41.527l-1.731-.6A40.045,40.045,0,0,0,0,54.052v3.665a.916.916,0,0,0,.916.916H31.836A2.064,2.064,0,0,0,33.9,56.571V52.22h3.228l-1.33,3.324a.916.916,0,0,0-.066.34v1.832a.916.916,0,0,0,.916.916H46.723a.916.916,0,0,0,.916-.916V55.884a.916.916,0,0,0-.066-.34l-1.33-3.324H57.716a.916.916,0,0,0,.916-.916V37.561H56.8V50.387H33.9V47.868a2.064,2.064,0,0,0-2.061-2.061H27.484V32.065H56.8v3.665h1.832V31.148A.916.916,0,0,0,57.716,30.232ZM24.736,13.742H26.11a1.376,1.376,0,0,1,1.374,1.374v1.832a1.376,1.376,0,0,1-1.374,1.374H24.736ZM8.245,18.323H6.871A1.376,1.376,0,0,1,5.5,16.948V15.116a1.376,1.376,0,0,1,1.374-1.374H8.245Zm4.093,4.569a4.782,4.782,0,0,1-2.261-4.078V12.289l3.52-3.52a10.136,10.136,0,0,0,8.081,4.057H22.9v6.017a4.779,4.779,0,0,1-2.279,4.09L18.431,24.29a3.642,3.642,0,0,1-3.871-.009Zm4.152,9.173a5.031,5.031,0,0,1-3.573-1.482l1.123-4.493a5.451,5.451,0,0,0,4.9.011l1.12,4.482a5.031,5.031,0,0,1-3.573,1.482Zm21.071,24L39.1,52.22H44.27l1.536,3.841v.74H37.561Z" transform="translate(0)"/>
      <path id="Trazado_1048510" data-name="Trazado 1048510" d="M299.435,309.5a2.064,2.064,0,0,0,2.061-2.061v-1.374A2.064,2.064,0,0,0,299.435,304h-1.374A2.064,2.064,0,0,0,296,306.061v1.374a2.064,2.064,0,0,0,2.061,2.061Zm-1.6-2.061v-1.374a.232.232,0,0,1,.229-.229h1.374a.232.232,0,0,1,.229.229v1.374a.232.232,0,0,1-.229.229h-1.374A.232.232,0,0,1,297.832,307.436Z" transform="translate(-262.103 -269.187)"/>
      <path id="Trazado_1048511" data-name="Trazado 1048511" d="M360,304h1.832v5.5H360Z" transform="translate(-318.774 -269.187)"/>
      <path id="Trazado_1048512" data-name="Trazado 1048512" d="M264,304h1.832v5.5H264Z" transform="translate(-233.768 -269.187)"/>
      <path id="Trazado_1048513" data-name="Trazado 1048513" d="M395.435,309.5a2.064,2.064,0,0,0,2.061-2.061v-1.374A2.064,2.064,0,0,0,395.435,304h-1.374A2.064,2.064,0,0,0,392,306.061v1.374a2.064,2.064,0,0,0,2.061,2.061Zm-1.6-2.061v-1.374a.232.232,0,0,1,.229-.229h1.374a.232.232,0,0,1,.229.229v1.374a.232.232,0,0,1-.229.229h-1.374A.232.232,0,0,1,393.832,307.436Z" transform="translate(-347.11 -269.187)"/>
      <path id="Trazado_1048514" data-name="Trazado 1048514" d="M456,304h1.832v5.5H456Z" transform="translate(-403.78 -269.187)"/>
      <path id="Trazado_1048515" data-name="Trazado 1048515" d="M306.061,373.5h1.374a2.064,2.064,0,0,0,2.061-2.061v-1.374A2.064,2.064,0,0,0,307.436,368h-1.374A2.064,2.064,0,0,0,304,370.061v1.374A2.064,2.064,0,0,0,306.061,373.5Zm-.229-3.435a.232.232,0,0,1,.229-.229h1.374a.232.232,0,0,1,.229.229v1.374a.232.232,0,0,1-.229.229h-1.374a.232.232,0,0,1-.229-.229Z" transform="translate(-269.187 -325.858)"/>
      <path id="Trazado_1048516" data-name="Trazado 1048516" d="M368,368h1.832v5.5H368Z" transform="translate(-325.858 -325.858)"/>
      <path id="Trazado_1048517" data-name="Trazado 1048517" d="M402.061,373.5h1.374a2.064,2.064,0,0,0,2.061-2.061v-1.374A2.064,2.064,0,0,0,403.436,368h-1.374A2.064,2.064,0,0,0,400,370.061v1.374A2.064,2.064,0,0,0,402.061,373.5Zm-.229-3.435a.232.232,0,0,1,.229-.229h1.374a.232.232,0,0,1,.229.229v1.374a.232.232,0,0,1-.229.229h-1.374a.232.232,0,0,1-.229-.229Z" transform="translate(-354.193 -325.858)"/>
      <path id="Trazado_1048518" data-name="Trazado 1048518" d="M464,368h1.832v5.5H464Z" transform="translate(-410.864 -325.858)"/>
      <path id="Trazado_1048519" data-name="Trazado 1048519" d="M295.343,18.854a17.579,17.579,0,0,0-19.2,0A8.937,8.937,0,0,0,272,26.077a7.439,7.439,0,0,0,1.764,4.83l-1.746,8.732a.916.916,0,0,0,1.308,1l9.439-4.72a18.777,18.777,0,0,0,2.977.236,16.6,16.6,0,0,0,9.6-2.854,8.937,8.937,0,0,0,4.14-7.223A8.937,8.937,0,0,0,295.343,18.854Zm-9.6,15.469a16.886,16.886,0,0,1-2.958-.258.913.913,0,0,0-.571.082l-8.031,4.016,1.465-7.324a.916.916,0,0,0-.206-.78,5.777,5.777,0,0,1-1.608-3.981c0-4.546,5.343-8.245,11.91-8.245s11.91,3.7,11.91,8.245S292.309,34.323,285.741,34.323Z" transform="translate(-240.851 -14.168)"/>
      <path id="Trazado_1048520" data-name="Trazado 1048520" d="M323.863,59,320.2,63.581a.916.916,0,0,0,0,1.145l3.665,4.581,1.431-1.145-3.206-4.008,3.206-4.008Z" transform="translate(-283.353 -52.244)"/>
      <path id="Trazado_1048521" data-name="Trazado 1048521" d="M419.184,59l-1.431,1.145,3.206,4.008-3.206,4.008,1.431,1.145,3.665-4.581a.916.916,0,0,0,0-1.145Z" transform="translate(-369.913 -52.244)"/>
      <path id="Trazado_1048522" data-name="Trazado 1048522" d="M0,0H9.343V1.832H0Z" transform="matrix(0.196, -0.981, 0.981, 0.196, 43.076, 16.293)"/>
      <path id="Trazado_1048523" data-name="Trazado 1048523" d="M88,432h1.832v1.832H88Z" transform="translate(-77.923 -382.529)"/>
      <path id="Trazado_1048524" data-name="Trazado 1048524" d="M88,464h1.832v1.832H88Z" transform="translate(-77.923 -410.864)"/>
      <path id="Trazado_1048525" data-name="Trazado 1048525" d="M120,464h1.832v1.832H120Z" transform="translate(-106.258 -410.864)"/>
      <path id="Trazado_1048526" data-name="Trazado 1048526" d="M120,432h1.832v1.832H120Z" transform="translate(-106.258 -382.529)"/>
      <path id="Trazado_1048527" data-name="Trazado 1048527" d="M152,432h1.832v1.832H152Z" transform="translate(-134.594 -382.529)"/>
      <path id="Trazado_1048528" data-name="Trazado 1048528" d="M152,464h1.832v1.832H152Z" transform="translate(-134.594 -410.864)"/>
      <path id="Trazado_1048529" data-name="Trazado 1048529" d="M184,464h1.832v1.832H184Z" transform="translate(-162.929 -410.864)"/>
      <path id="Trazado_1048530" data-name="Trazado 1048530" d="M184,432h1.832v1.832H184Z" transform="translate(-162.929 -382.529)"/>
      <path id="Trazado_1048531" data-name="Trazado 1048531" d="M216,432h1.832v1.832H216Z" transform="translate(-191.264 -382.529)"/>
      <path id="Trazado_1048532" data-name="Trazado 1048532" d="M216,464h1.832v1.832H216Z" transform="translate(-191.264 -410.864)"/>
      <path id="Trazado_1048533" data-name="Trazado 1048533" d="M248,464h1.832v1.832H248Z" transform="translate(-219.6 -410.864)"/>
      <path id="Trazado_1048534" data-name="Trazado 1048534" d="M248,432h1.832v1.832H248Z" transform="translate(-219.6 -382.529)"/>
    </g>
  </g>
</svg>
