<svg xmlns="http://www.w3.org/2000/svg" xmlns:xlink="http://www.w3.org/1999/xlink" width="108" height="108" viewBox="0 0 108 108">
  <defs>
    <filter id="Trazado_982547" x="0" y="0" width="108" height="108" filterUnits="userSpaceOnUse">
      <feOffset dy="3" input="SourceAlpha"/>
      <feGaussianBlur stdDeviation="3" result="blur"/>
      <feFlood flood-opacity="0.161"/>
      <feComposite operator="in" in2="blur"/>
      <feComposite in="SourceGraphic"/>
    </filter>
  </defs>
  <g id="Grupo_1202765" data-name="Grupo 1202765" transform="translate(-195.369 -2364)">
    <g id="Grupo_1180855" data-name="Grupo 1180855" transform="translate(-0.631 -1816)">
      <g id="Grupo_1202558" data-name="Grupo 1202558" transform="translate(-125.796 1937.702)">
        <g id="Grupo_1202232" data-name="Grupo 1202232" transform="translate(330.796 2248.298)">
          <g id="Grupo_1201680" data-name="Grupo 1201680">
            <g id="Grupo_1201330" data-name="Grupo 1201330">
              <g id="Grupo_1172010" data-name="Grupo 1172010">
                <g id="Grupo_1171046" data-name="Grupo 1171046">
                  <g id="Grupo_1148525" data-name="Grupo 1148525">
                    <g transform="matrix(1, 0, 0, 1, -9, -6)" filter="url(#Trazado_982547)">
                      <g id="Trazado_982547-2" data-name="Trazado 982547" transform="translate(9 6)" fill="#e5ebfb">
                        <path d="M 45.00000381469727 88.5 C 39.12688064575195 88.5 33.43022918701172 87.35008239746094 28.06830406188965 85.08217620849609 C 22.88852882385254 82.89131927490234 18.23630332946777 79.75459289550781 14.24085426330566 75.7591552734375 C 10.24541664123535 71.76370239257812 7.108691215515137 67.11148071289062 4.917829036712646 61.93170547485352 C 2.64992880821228 56.56977844238281 1.500003814697266 50.87312698364258 1.500003814697266 45.00000381469727 C 1.500003814697266 39.12688064575195 2.64992880821228 33.43022918701172 4.917829036712646 28.06830406188965 C 7.108691215515137 22.88852882385254 10.24541664123535 18.23630332946777 14.24085426330566 14.24085426330566 C 18.23630332946777 10.24541664123535 22.88852882385254 7.108691215515137 28.06830406188965 4.917829036712646 C 33.43022918701172 2.64992880821228 39.12688064575195 1.500003814697266 45.00000381469727 1.500003814697266 C 50.87312698364258 1.500003814697266 56.56977844238281 2.64992880821228 61.93170547485352 4.917829036712646 C 67.11148071289062 7.108691215515137 71.76370239257812 10.24541664123535 75.7591552734375 14.24085426330566 C 79.75459289550781 18.23630332946777 82.89131927490234 22.88852882385254 85.08217620849609 28.06830406188965 C 87.35008239746094 33.43022918701172 88.5 39.12688064575195 88.5 45.00000381469727 C 88.5 50.87312698364258 87.35008239746094 56.56977844238281 85.08217620849609 61.93170547485352 C 82.89131927490234 67.11148071289062 79.75459289550781 71.76370239257812 75.7591552734375 75.7591552734375 C 71.76370239257812 79.75459289550781 67.11148071289062 82.89131927490234 61.93170547485352 85.08217620849609 C 56.56977844238281 87.35008239746094 50.87312698364258 88.5 45.00000381469727 88.5 Z" stroke="none"/>
                        <path d="M 45.00000381469727 3.000007629394531 C 39.32871627807617 3.000007629394531 33.82865905761719 4.110061645507812 28.65263366699219 6.299346923828125 C 23.65166473388672 8.414573669433594 19.15969085693359 11.44334411621094 15.30152130126953 15.30152130126953 C 11.44334411621094 19.15969085693359 8.414573669433594 23.65166473388672 6.299346923828125 28.65263366699219 C 4.110061645507812 33.82865905761719 3.000007629394531 39.32871627807617 3.000007629394531 45.00000381469727 C 3.000007629394531 50.67129135131836 4.110061645507812 56.17134857177734 6.299346923828125 61.34737396240234 C 8.414573669433594 66.34834289550781 11.44334411621094 70.84031677246094 15.30152130126953 74.698486328125 C 19.15969085693359 78.55666351318359 23.65166473388672 81.58543395996094 28.65263366699219 83.70066070556641 C 33.82865905761719 85.88994598388672 39.32871627807617 87 45.00000381469727 87 C 50.67129135131836 87 56.17134857177734 85.88994598388672 61.34737396240234 83.70066070556641 C 66.34834289550781 81.58543395996094 70.84031677246094 78.55666351318359 74.698486328125 74.698486328125 C 78.55666351318359 70.84031677246094 81.58543395996094 66.34834289550781 83.70066070556641 61.34737396240234 C 85.88994598388672 56.17134857177734 87 50.67129135131836 87 45.00000381469727 C 87 39.32871627807617 85.88994598388672 33.82865905761719 83.70066070556641 28.65263366699219 C 81.58543395996094 23.65166473388672 78.55666351318359 19.15969085693359 74.698486328125 15.30152130126953 C 70.84031677246094 11.44334411621094 66.34834289550781 8.414573669433594 61.34737396240234 6.299346923828125 C 56.17134857177734 4.110061645507812 50.67129135131836 3.000007629394531 45.00000381469727 3.000007629394531 M 45.00000381469727 7.62939453125e-06 C 69.85281372070312 7.62939453125e-06 90 20.14718627929688 90 45.00000381469727 C 90 69.85281372070312 69.85281372070312 90 45.00000381469727 90 C 20.14718627929688 90 7.62939453125e-06 69.85281372070312 7.62939453125e-06 45.00000381469727 C 7.62939453125e-06 20.14718627929688 20.14718627929688 7.62939453125e-06 45.00000381469727 7.62939453125e-06 Z" stroke="none" fill="#5c2c88"/>
                      </g>
                    </g>
                  </g>
                </g>
              </g>
            </g>
          </g>
        </g>
      </g>
    </g>
    <g id="_FILLED_OUTLINE" data-name="/ FILLED_OUTLINE" transform="translate(201.526 2358.642)">
      <path id="Trazado_1048383" data-name="Trazado 1048383" d="M112.826,184h-46.7A2.123,2.123,0,0,0,64,186.123v33.966h50.948V186.123A2.123,2.123,0,0,0,112.826,184Z" transform="translate(-41.631 -147.056)" fill="#dfdfdf"/>
      <path id="Trazado_1048384" data-name="Trazado 1048384" d="M319.945,350.966h16.99V334.9A40.5,40.5,0,0,1,319.945,350.966Z" transform="translate(-263.618 -277.934)" fill="#bebebe"/>
      <path id="Trazado_1048385" data-name="Trazado 1048385" d="M24,448v3.184a2.123,2.123,0,0,0,2.123,2.123h52.01V448Z" transform="translate(-6.938 -376.029)" fill="#bebebe"/>
      <path id="Trazado_1048386" data-name="Trazado 1048386" d="M184.1,453.307h32.89V448H204.11a40.135,40.135,0,0,1-20.007,5.307Z" transform="translate(-145.799 -376.029)" fill="#a2a2a2"/>
      <rect id="Rectángulo_417946" data-name="Rectángulo 417946" width="36.567" height="32.265" rx="16.133" transform="translate(27.405 34.666)" fill="#00659d"/>
      <path id="Trazado_1048387" data-name="Trazado 1048387" d="M161.965,224H133.307a2.123,2.123,0,0,0-2.123,2.123V246.29A3.184,3.184,0,0,1,128,249.474h33.966a3.184,3.184,0,0,0,3.184-3.184V227.184A3.184,3.184,0,0,0,161.965,224Z" transform="translate(-97.14 -181.749)" fill="#338dbf"/>
      <path id="Trazado_1048391" data-name="Trazado 1048391" d="M230.278,278.147l-3.935-3.935,1.5-1.5,2.434,2.434,8.8-8.8,1.5,1.5Z" transform="translate(-182.435 -218.474)" fill="#cbe2ef"/>
      <path id="Trazado_1048394" data-name="Trazado 1048394" d="M216,264.875h22.29a3.184,3.184,0,0,0,3.184-3.184V242.585a3.185,3.185,0,0,0-.109-.828A25.475,25.475,0,0,1,216,264.875Z" transform="translate(-173.464 -197.15)" fill="#2c78a3"/>
      <circle id="Elipse_12918" data-name="Elipse 12918" cx="9.68" cy="9.68" r="9.68" transform="translate(59.67 58.327)" fill="#00b378"/>
      <path id="Trazado_1048395" data-name="Trazado 1048395" d="M379.844,379.365l-1.5-1.5,3.935-3.935V368H384.4v6.808Z" transform="translate(-314.268 -306.643)" fill="#bdecdc"/>
      <path id="Trazado_1048396" data-name="Trazado 1048396" d="M386.428,399.061a9.552,9.552,0,0,0,12.633-12.633A19.148,19.148,0,0,1,386.428,399.061Z" transform="translate(-321.28 -322.626)" fill="#096"/>
      <path id="Trazado_1048398" data-name="Trazado 1048398" d="M74.378,184.779V165.307a3.188,3.188,0,0,0-3.184-3.184H64.643a3.189,3.189,0,0,0-3-2.123h-7.43v2.123h7.43a1.063,1.063,0,0,1,1.061,1.061v4.246H51.027v2.123h14.86a1.063,1.063,0,0,1,1.061,1.061v12.951A10.638,10.638,0,0,0,58.51,192.9H34.535a4.218,4.218,0,0,0,.571-2.123V170.614a1.063,1.063,0,0,1,1.061-1.061h8.491V167.43H36.167a3.188,3.188,0,0,0-3.184,3.184v20.167a2.123,2.123,0,0,1-4.246,0v-27.6a1.063,1.063,0,0,1,1.061-1.061H41.474V160H29.8a3.189,3.189,0,0,0-3,2.123H24.491a3.188,3.188,0,0,0-3.184,3.184V197.15H16V201.4a3.188,3.188,0,0,0,3.184,3.184H69.071a10.61,10.61,0,0,0,5.307-19.8ZM65.887,167.43H64.826v-3.184h6.369a1.063,1.063,0,0,1,1.061,1.061V183.84a10.577,10.577,0,0,0-3.184-.489V170.614a3.188,3.188,0,0,0-3.184-3.184ZM23.43,165.307a1.063,1.063,0,0,1,1.061-1.061h2.123v26.536a4.251,4.251,0,0,0,4.246,4.246H58.51a10.538,10.538,0,0,0,.435,2.123H23.43Zm-4.246,37.15a1.063,1.063,0,0,1-1.061-1.061v-2.123H59.885a10.693,10.693,0,0,0,2.825,3.184Zm49.887,0a8.491,8.491,0,1,1,8.491-8.491A8.491,8.491,0,0,1,69.071,202.457Z" transform="translate(0 -126.24)"/>
      <path id="Trazado_1048399" data-name="Trazado 1048399" d="M227.844,272.712l-1.5,1.5,3.935,3.935,10.3-10.3-1.5-1.5-8.8,8.8Z" transform="translate(-182.435 -218.474)"/>
      <path id="Trazado_1048401" data-name="Trazado 1048401" d="M382.278,373.929l-3.935,3.935,1.5,1.5,4.557-4.557V368h-2.123Z" transform="translate(-314.268 -306.643)"/>
    </g>
  </g>
</svg>
