<svg xmlns="http://www.w3.org/2000/svg" xmlns:xlink="http://www.w3.org/1999/xlink" width="108" height="108" viewBox="0 0 108 108">
  <defs>
    <filter id="Trazado_982547" x="0" y="0" width="108" height="108" filterUnits="userSpaceOnUse">
      <feOffset dy="3" input="SourceAlpha"/>
      <feGaussianBlur stdDeviation="3" result="blur"/>
      <feFlood flood-opacity="0.161"/>
      <feComposite operator="in" in2="blur"/>
      <feComposite in="SourceGraphic"/>
    </filter>
  </defs>
  <g id="Grupo_1202852" data-name="Grupo 1202852" transform="translate(-195.369 -3405)">
    <g id="Grupo_1202751" data-name="Grupo 1202751" transform="translate(-0.631 -775)">
      <g id="Grupo_1202558" data-name="Grupo 1202558" transform="translate(-125.796 1937.702)">
        <g id="Grupo_1202232" data-name="Grupo 1202232" transform="translate(330.796 2248.298)">
          <g id="Grupo_1201680" data-name="Grupo 1201680">
            <g id="Grupo_1201330" data-name="Grupo 1201330">
              <g id="Grupo_1172010" data-name="Grupo 1172010">
                <g id="Grupo_1171046" data-name="Grupo 1171046">
                  <g id="Grupo_1148525" data-name="Grupo 1148525">
                    <g transform="matrix(1, 0, 0, 1, -9, -6)" filter="url(#Trazado_982547)">
                      <g id="Trazado_982547-2" data-name="Trazado 982547" transform="translate(9 6)" fill="#e5ebfb">
                        <path d="M 45.00000381469727 88.5 C 39.12688064575195 88.5 33.43022918701172 87.35008239746094 28.06830406188965 85.08217620849609 C 22.88852882385254 82.89131927490234 18.23630332946777 79.75459289550781 14.24085426330566 75.7591552734375 C 10.24541664123535 71.76370239257812 7.108691215515137 67.11148071289062 4.917829036712646 61.93170547485352 C 2.64992880821228 56.56977844238281 1.500003814697266 50.87312698364258 1.500003814697266 45.00000381469727 C 1.500003814697266 39.12688064575195 2.64992880821228 33.43022918701172 4.917829036712646 28.06830406188965 C 7.108691215515137 22.88852882385254 10.24541664123535 18.23630332946777 14.24085426330566 14.24085426330566 C 18.23630332946777 10.24541664123535 22.88852882385254 7.108691215515137 28.06830406188965 4.917829036712646 C 33.43022918701172 2.64992880821228 39.12688064575195 1.500003814697266 45.00000381469727 1.500003814697266 C 50.87312698364258 1.500003814697266 56.56977844238281 2.64992880821228 61.93170547485352 4.917829036712646 C 67.11148071289062 7.108691215515137 71.76370239257812 10.24541664123535 75.7591552734375 14.24085426330566 C 79.75459289550781 18.23630332946777 82.89131927490234 22.88852882385254 85.08217620849609 28.06830406188965 C 87.35008239746094 33.43022918701172 88.5 39.12688064575195 88.5 45.00000381469727 C 88.5 50.87312698364258 87.35008239746094 56.56977844238281 85.08217620849609 61.93170547485352 C 82.89131927490234 67.11148071289062 79.75459289550781 71.76370239257812 75.7591552734375 75.7591552734375 C 71.76370239257812 79.75459289550781 67.11148071289062 82.89131927490234 61.93170547485352 85.08217620849609 C 56.56977844238281 87.35008239746094 50.87312698364258 88.5 45.00000381469727 88.5 Z" stroke="none"/>
                        <path d="M 45.00000381469727 3.000007629394531 C 39.32871627807617 3.000007629394531 33.82865905761719 4.110061645507812 28.65263366699219 6.299346923828125 C 23.65166473388672 8.414573669433594 19.15969085693359 11.44334411621094 15.30152130126953 15.30152130126953 C 11.44334411621094 19.15969085693359 8.414573669433594 23.65166473388672 6.299346923828125 28.65263366699219 C 4.110061645507812 33.82865905761719 3.000007629394531 39.32871627807617 3.000007629394531 45.00000381469727 C 3.000007629394531 50.67129135131836 4.110061645507812 56.17134857177734 6.299346923828125 61.34737396240234 C 8.414573669433594 66.34834289550781 11.44334411621094 70.84031677246094 15.30152130126953 74.698486328125 C 19.15969085693359 78.55666351318359 23.65166473388672 81.58543395996094 28.65263366699219 83.70066070556641 C 33.82865905761719 85.88994598388672 39.32871627807617 87 45.00000381469727 87 C 50.67129135131836 87 56.17134857177734 85.88994598388672 61.34737396240234 83.70066070556641 C 66.34834289550781 81.58543395996094 70.84031677246094 78.55666351318359 74.698486328125 74.698486328125 C 78.55666351318359 70.84031677246094 81.58543395996094 66.34834289550781 83.70066070556641 61.34737396240234 C 85.88994598388672 56.17134857177734 87 50.67129135131836 87 45.00000381469727 C 87 39.32871627807617 85.88994598388672 33.82865905761719 83.70066070556641 28.65263366699219 C 81.58543395996094 23.65166473388672 78.55666351318359 19.15969085693359 74.698486328125 15.30152130126953 C 70.84031677246094 11.44334411621094 66.34834289550781 8.414573669433594 61.34737396240234 6.299346923828125 C 56.17134857177734 4.110061645507812 50.67129135131836 3.000007629394531 45.00000381469727 3.000007629394531 M 45.00000381469727 7.62939453125e-06 C 69.85281372070312 7.62939453125e-06 90 20.14718627929688 90 45.00000381469727 C 90 69.85281372070312 69.85281372070312 90 45.00000381469727 90 C 20.14718627929688 90 7.62939453125e-06 69.85281372070312 7.62939453125e-06 45.00000381469727 C 7.62939453125e-06 20.14718627929688 20.14718627929688 7.62939453125e-06 45.00000381469727 7.62939453125e-06 Z" stroke="none" fill="#5c2c88"/>
                      </g>
                    </g>
                  </g>
                </g>
              </g>
            </g>
          </g>
        </g>
      </g>
    </g>
    <g id="computer_13014391" transform="translate(217.369 3424.051)">
      <rect id="Rectángulo_418063" data-name="Rectángulo 418063" width="60" height="28" rx="4" transform="translate(2 22)" fill="#393a3a"/>
      <path id="Trazado_1048984" data-name="Trazado 1048984" d="M62,46V26a4,4,0,0,0-4-4H6a3.988,3.988,0,0,0-3.973,3.734c-.011.255-.027.509-.027.766C2,39.479,16.551,50,34.5,50H58A4,4,0,0,0,62,46Z" fill="#616061"/>
      <path id="Trazado_1048985" data-name="Trazado 1048985" d="M22,26h4v4H22Z" fill="#b4b2a6"/>
      <path id="Trazado_1048986" data-name="Trazado 1048986" d="M26,29.89V26H22.193A5.228,5.228,0,0,0,26,29.89Z" fill="#d8d5cb"/>
      <path id="Trazado_1048987" data-name="Trazado 1048987" d="M38,26h4v4H38Z" fill="#b4b2a6"/>
      <path id="Trazado_1048988" data-name="Trazado 1048988" d="M42,29.89V26H38.193A5.228,5.228,0,0,0,42,29.89Z" fill="#d8d5cb"/>
      <circle id="Elipse_12925" data-name="Elipse 12925" cx="12" cy="12" r="12" transform="translate(20 6)" fill="#e4a350"/>
      <path id="Trazado_1048989" data-name="Trazado 1048989" d="M32,6a11.963,11.963,0,0,0-8.979,4.057c0,.148-.021.293-.021.443A15.424,15.424,0,0,0,41.146,25.758,11.992,11.992,0,0,0,32,6Z" fill="#f5bb5c"/>
      <path id="Trazado_1048990" data-name="Trazado 1048990" d="M14,26h4v4H14Z" fill="#b4b2a6"/>
      <path id="Trazado_1048991" data-name="Trazado 1048991" d="M18,29.89V26H14.193A5.228,5.228,0,0,0,18,29.89Z" fill="#d8d5cb"/>
      <path id="Trazado_1048992" data-name="Trazado 1048992" d="M54,26h4v4H54Z" fill="#b4b2a6"/>
      <path id="Trazado_1048993" data-name="Trazado 1048993" d="M58,29.89V26H54.193A5.228,5.228,0,0,0,58,29.89Z" fill="#d8d5cb"/>
      <path id="Trazado_1048994" data-name="Trazado 1048994" d="M42,34h4v4H42Z" fill="#b4b2a6"/>
      <path id="Trazado_1048995" data-name="Trazado 1048995" d="M46,37.89V34H42.193A5.228,5.228,0,0,0,46,37.89Z" fill="#d8d5cb"/>
      <path id="Trazado_1048996" data-name="Trazado 1048996" d="M34,34h4v4H34Z" fill="#b4b2a6"/>
      <path id="Trazado_1048997" data-name="Trazado 1048997" d="M38,37.89V34H34.193A5.228,5.228,0,0,0,38,37.89Z" fill="#d8d5cb"/>
      <path id="Trazado_1048998" data-name="Trazado 1048998" d="M26,34h4v4H26Z" fill="#b4b2a6"/>
      <path id="Trazado_1048999" data-name="Trazado 1048999" d="M30,37.89V34H26.193A5.228,5.228,0,0,0,30,37.89Z" fill="#d8d5cb"/>
      <path id="Trazado_1049000" data-name="Trazado 1049000" d="M18,34h4v4H18Z" fill="#b4b2a6"/>
      <path id="Trazado_1049001" data-name="Trazado 1049001" d="M22,37.89V34H18.193A5.228,5.228,0,0,0,22,37.89Z" fill="#d8d5cb"/>
      <path id="Trazado_1049002" data-name="Trazado 1049002" d="M6,26h4v4H6Z" fill="#b4b2a6"/>
      <path id="Trazado_1049003" data-name="Trazado 1049003" d="M50,34h8v4H50Z" fill="#b4b2a6"/>
      <path id="Trazado_1049004" data-name="Trazado 1049004" d="M10,29.89V26H6.193A5.228,5.228,0,0,0,10,29.89Z" fill="#d8d5cb"/>
      <path id="Trazado_1049005" data-name="Trazado 1049005" d="M50,34.625A6.993,6.993,0,0,0,55.236,38H58V34H50Z" fill="#d8d5cb"/>
      <path id="Trazado_1049006" data-name="Trazado 1049006" d="M6,34h8v4H6Z" fill="#b4b2a6"/>
      <path id="Trazado_1049007" data-name="Trazado 1049007" d="M6,34.625A6.993,6.993,0,0,0,11.236,38H14V34H6Z" fill="#d8d5cb"/>
      <path id="Trazado_1049008" data-name="Trazado 1049008" d="M6,42h4v4H6Z" fill="#b4b2a6"/>
      <path id="Trazado_1049009" data-name="Trazado 1049009" d="M10,45.89V42H6.193A5.228,5.228,0,0,0,10,45.89Z" fill="#d8d5cb"/>
      <path id="Trazado_1049010" data-name="Trazado 1049010" d="M54,42h4v4H54Z" fill="#b4b2a6"/>
      <path id="Trazado_1049011" data-name="Trazado 1049011" d="M58,45.89V42H54.193A5.228,5.228,0,0,0,58,45.89Z" fill="#d8d5cb"/>
      <path id="Trazado_1049012" data-name="Trazado 1049012" d="M14,42H50v4H14Z" fill="#b4b2a6"/>
      <path id="Trazado_1049013" data-name="Trazado 1049013" d="M50,42H14v.14C16.157,44.4,21.6,46,28,46H50Z" fill="#d8d5cb"/>
      <path id="Trazado_1049014" data-name="Trazado 1049014" d="M46,26h4v4H46Z" fill="#b4b2a6"/>
      <path id="Trazado_1049015" data-name="Trazado 1049015" d="M46,26h4v4H46Z" fill="#b4b2a6"/>
      <path id="Trazado_1049016" data-name="Trazado 1049016" d="M50,29.89V26H46.193A5.228,5.228,0,0,0,50,29.89Z" fill="#d8d5cb"/>
      <path id="Trazado_1049017" data-name="Trazado 1049017" d="M6,31h4a1,1,0,0,0,1-1V26a1,1,0,0,0-1-1H6a1,1,0,0,0-1,1v4A1,1,0,0,0,6,31Zm1-4H9v2H7Z"/>
      <path id="Trazado_1049018" data-name="Trazado 1049018" d="M14,33H6a1,1,0,0,0-1,1v4a1,1,0,0,0,1,1h8a1,1,0,0,0,1-1V34A1,1,0,0,0,14,33Zm-1,4H7V35h6Z"/>
      <path id="Trazado_1049019" data-name="Trazado 1049019" d="M58,33H50a1,1,0,0,0-1,1v4a1,1,0,0,0,1,1h8a1,1,0,0,0,1-1V34A1,1,0,0,0,58,33Zm-1,4H51V35h6Z"/>
      <path id="Trazado_1049020" data-name="Trazado 1049020" d="M14,31h4a1,1,0,0,0,1-1V26a1,1,0,0,0-1-1H14a1,1,0,0,0-1,1v4A1,1,0,0,0,14,31Zm1-4h2v2H15Z"/>
      <path id="Trazado_1049021" data-name="Trazado 1049021" d="M54,31h4a1,1,0,0,0,1-1V26a1,1,0,0,0-1-1H54a1,1,0,0,0-1,1v4A1,1,0,0,0,54,31Zm1-4h2v2H55Z"/>
      <path id="Trazado_1049022" data-name="Trazado 1049022" d="M22,33H18a1,1,0,0,0-1,1v4a1,1,0,0,0,1,1h4a1,1,0,0,0,1-1V34A1,1,0,0,0,22,33Zm-1,4H19V35h2Z"/>
      <path id="Trazado_1049023" data-name="Trazado 1049023" d="M30,33H26a1,1,0,0,0-1,1v4a1,1,0,0,0,1,1h4a1,1,0,0,0,1-1V34A1,1,0,0,0,30,33Zm-1,4H27V35h2Z"/>
      <path id="Trazado_1049024" data-name="Trazado 1049024" d="M38,33H34a1,1,0,0,0-1,1v4a1,1,0,0,0,1,1h4a1,1,0,0,0,1-1V34A1,1,0,0,0,38,33Zm-1,4H35V35h2Z"/>
      <path id="Trazado_1049025" data-name="Trazado 1049025" d="M46,33H42a1,1,0,0,0-1,1v4a1,1,0,0,0,1,1h4a1,1,0,0,0,1-1V34A1,1,0,0,0,46,33Zm-1,4H43V35h2Z"/>
      <path id="Trazado_1049026" data-name="Trazado 1049026" d="M10,41H6a1,1,0,0,0-1,1v4a1,1,0,0,0,1,1h4a1,1,0,0,0,1-1V42A1,1,0,0,0,10,41ZM9,45H7V43H9Z"/>
      <path id="Trazado_1049027" data-name="Trazado 1049027" d="M58,41H54a1,1,0,0,0-1,1v4a1,1,0,0,0,1,1h4a1,1,0,0,0,1-1V42A1,1,0,0,0,58,41Zm-1,4H55V43h2Z"/>
      <path id="Trazado_1049028" data-name="Trazado 1049028" d="M55.293,17.293,51.586,21H44.637a13,13,0,1,0-25.274,0H6a5.006,5.006,0,0,0-5,5V46a5.006,5.006,0,0,0,5,5H18.586l-6,6H1v2H13a1,1,0,0,0,.707-.293L21.414,51H58a5.006,5.006,0,0,0,5-5V26a5.006,5.006,0,0,0-5-5H54.414l2-2H63V17H56a1,1,0,0,0-.707.293ZM32,7A11,11,0,1,1,21,18,11,11,0,0,1,32,7Zm7,21.937a13.052,13.052,0,0,0,2-1.578V29H39ZM23,27.359a13.052,13.052,0,0,0,2,1.578V29H23ZM58,23a3,3,0,0,1,3,3V46a3,3,0,0,1-3,3H23.414l2-2H50a1,1,0,0,0,1-1V42a1,1,0,0,0-1-1H14a1,1,0,0,0-1,1v4a1,1,0,0,0,1,1h8.586l-2,2H6a3,3,0,0,1-3-3V26a3,3,0,0,1,3-3H20a13,13,0,0,0,1.267,2.326A.992.992,0,0,0,21,26v4a1,1,0,0,0,1,1h4a1,1,0,0,0,1-1,12.964,12.964,0,0,0,10,0,1,1,0,0,0,1,1h4a1,1,0,0,0,1-1V26a.992.992,0,0,0-.27-.674A13,13,0,0,0,44,23h5.589l-2,2H46a1,1,0,0,0-1,1v4a1,1,0,0,0,1,1h4a1,1,0,0,0,1-1V26a1,1,0,0,0-.655-.931L52.414,23ZM15,45V43H49v2ZM49,27v2H47V27Z"/>
      <path id="Trazado_1049029" data-name="Trazado 1049029" d="M55,13h4v2H55Z"/>
      <path id="Trazado_1049030" data-name="Trazado 1049030" d="M61,13h2v2H61Z"/>
      <path id="Trazado_1049031" data-name="Trazado 1049031" d="M1,53H7v2H1Z"/>
      <path id="Trazado_1049032" data-name="Trazado 1049032" d="M9,53h2v2H9Z"/>
      <path id="Trazado_1049033" data-name="Trazado 1049033" d="M39,24V12H37V24Z"/>
      <path id="Trazado_1049034" data-name="Trazado 1049034" d="M31.293,21.293l1.414,1.414,4-4a1,1,0,0,0,0-1.414l-4-4-1.414,1.414L33.586,17H24v2h9.586Z"/>
    </g>
  </g>
</svg>
