<svg xmlns="http://www.w3.org/2000/svg" xmlns:xlink="http://www.w3.org/1999/xlink" width="108" height="108" viewBox="0 0 108 108">
  <defs>
    <filter id="Trazado_982547" x="0" y="0" width="108" height="108" filterUnits="userSpaceOnUse">
      <feOffset dy="3" input="SourceAlpha"/>
      <feGaussianBlur stdDeviation="3" result="blur"/>
      <feFlood flood-opacity="0.161"/>
      <feComposite operator="in" in2="blur"/>
      <feComposite in="SourceGraphic"/>
    </filter>
  </defs>
  <g id="Grupo_1202770" data-name="Grupo 1202770" transform="translate(-1034.869 -2364)">
    <g id="Grupo_1180857" data-name="Grupo 1180857" transform="translate(-0.631 -1816)">
      <g id="Grupo_1202560" data-name="Grupo 1202560" transform="translate(713.704 1937.702)">
        <g id="Grupo_1202232" data-name="Grupo 1202232" transform="translate(330.796 2248.298)">
          <g id="Grupo_1201680" data-name="Grupo 1201680">
            <g id="Grupo_1201330" data-name="Grupo 1201330">
              <g id="Grupo_1172010" data-name="Grupo 1172010">
                <g id="Grupo_1171046" data-name="Grupo 1171046">
                  <g id="Grupo_1148525" data-name="Grupo 1148525">
                    <g transform="matrix(1, 0, 0, 1, -9, -6)" filter="url(#Trazado_982547)">
                      <g id="Trazado_982547-2" data-name="Trazado 982547" transform="translate(9 6)" fill="#e5ebfb">
                        <path d="M 45.00000381469727 88.5 C 39.12688064575195 88.5 33.43022918701172 87.35008239746094 28.06830406188965 85.08217620849609 C 22.88852882385254 82.89131927490234 18.23630332946777 79.75459289550781 14.24085426330566 75.7591552734375 C 10.24541664123535 71.76370239257812 7.108691215515137 67.11148071289062 4.917829036712646 61.93170547485352 C 2.64992880821228 56.56977844238281 1.500003814697266 50.87312698364258 1.500003814697266 45.00000381469727 C 1.500003814697266 39.12688064575195 2.64992880821228 33.43022918701172 4.917829036712646 28.06830406188965 C 7.108691215515137 22.88852882385254 10.24541664123535 18.23630332946777 14.24085426330566 14.24085426330566 C 18.23630332946777 10.24541664123535 22.88852882385254 7.108691215515137 28.06830406188965 4.917829036712646 C 33.43022918701172 2.64992880821228 39.12688064575195 1.500003814697266 45.00000381469727 1.500003814697266 C 50.87312698364258 1.500003814697266 56.56977844238281 2.64992880821228 61.93170547485352 4.917829036712646 C 67.11148071289062 7.108691215515137 71.76370239257812 10.24541664123535 75.7591552734375 14.24085426330566 C 79.75459289550781 18.23630332946777 82.89131927490234 22.88852882385254 85.08217620849609 28.06830406188965 C 87.35008239746094 33.43022918701172 88.5 39.12688064575195 88.5 45.00000381469727 C 88.5 50.87312698364258 87.35008239746094 56.56977844238281 85.08217620849609 61.93170547485352 C 82.89131927490234 67.11148071289062 79.75459289550781 71.76370239257812 75.7591552734375 75.7591552734375 C 71.76370239257812 79.75459289550781 67.11148071289062 82.89131927490234 61.93170547485352 85.08217620849609 C 56.56977844238281 87.35008239746094 50.87312698364258 88.5 45.00000381469727 88.5 Z" stroke="none"/>
                        <path d="M 45.00000381469727 3.000007629394531 C 39.32871627807617 3.000007629394531 33.82865905761719 4.110061645507812 28.65263366699219 6.299346923828125 C 23.65166473388672 8.414573669433594 19.15969085693359 11.44334411621094 15.30152130126953 15.30152130126953 C 11.44334411621094 19.15969085693359 8.414573669433594 23.65166473388672 6.299346923828125 28.65263366699219 C 4.110061645507812 33.82865905761719 3.000007629394531 39.32871627807617 3.000007629394531 45.00000381469727 C 3.000007629394531 50.67129135131836 4.110061645507812 56.17134857177734 6.299346923828125 61.34737396240234 C 8.414573669433594 66.34834289550781 11.44334411621094 70.84031677246094 15.30152130126953 74.698486328125 C 19.15969085693359 78.55666351318359 23.65166473388672 81.58543395996094 28.65263366699219 83.70066070556641 C 33.82865905761719 85.88994598388672 39.32871627807617 87 45.00000381469727 87 C 50.67129135131836 87 56.17134857177734 85.88994598388672 61.34737396240234 83.70066070556641 C 66.34834289550781 81.58543395996094 70.84031677246094 78.55666351318359 74.698486328125 74.698486328125 C 78.55666351318359 70.84031677246094 81.58543395996094 66.34834289550781 83.70066070556641 61.34737396240234 C 85.88994598388672 56.17134857177734 87 50.67129135131836 87 45.00000381469727 C 87 39.32871627807617 85.88994598388672 33.82865905761719 83.70066070556641 28.65263366699219 C 81.58543395996094 23.65166473388672 78.55666351318359 19.15969085693359 74.698486328125 15.30152130126953 C 70.84031677246094 11.44334411621094 66.34834289550781 8.414573669433594 61.34737396240234 6.299346923828125 C 56.17134857177734 4.110061645507812 50.67129135131836 3.000007629394531 45.00000381469727 3.000007629394531 M 45.00000381469727 7.62939453125e-06 C 69.85281372070312 7.62939453125e-06 90 20.14718627929688 90 45.00000381469727 C 90 69.85281372070312 69.85281372070312 90 45.00000381469727 90 C 20.14718627929688 90 7.62939453125e-06 69.85281372070312 7.62939453125e-06 45.00000381469727 C 7.62939453125e-06 20.14718627929688 20.14718627929688 7.62939453125e-06 45.00000381469727 7.62939453125e-06 Z" stroke="none" fill="#5c2c88"/>
                      </g>
                    </g>
                  </g>
                </g>
              </g>
            </g>
          </g>
        </g>
      </g>
    </g>
    <g id="coding_1547495" transform="translate(1057 2384)">
      <g id="Grupo_1202768" data-name="Grupo 1202768">
        <circle id="Elipse_12919" data-name="Elipse 12919" cx="13" cy="13" r="13" transform="translate(18 2)" fill="#fcd770"/>
        <path id="Trazado_1048439" data-name="Trazado 1048439" d="M60,32V42a2.006,2.006,0,0,0-2,2V42a2.015,2.015,0,0,0-2-2,2.006,2.006,0,0,0-2,2V40a2.015,2.015,0,0,0-2-2,2.006,2.006,0,0,0-2,2V32H60Z" fill="#ccd1d9"/>
        <path id="Trazado_1048440" data-name="Trazado 1048440" d="M18,32V44h2a2.006,2.006,0,0,1,2,2h4a3.613,3.613,0,0,0,3.24,2h5.52A3.613,3.613,0,0,0,38,46h4a2.006,2.006,0,0,1,2-2h2V32Z" fill="#ccd1d9"/>
        <path id="Trazado_1048441" data-name="Trazado 1048441" d="M14,32v8a2.006,2.006,0,0,0-2-2,2.015,2.015,0,0,0-2,2v2a2.006,2.006,0,0,0-2-2,2.015,2.015,0,0,0-2,2v2a2.015,2.015,0,0,0-2-2V32H14Z" fill="#ccd1d9"/>
        <path id="Trazado_1048442" data-name="Trazado 1048442" d="M42,46l.01,8H21.99c.01-.11.01-.22.01-.33V46h4a3.613,3.613,0,0,0,3.24,2h5.52A3.613,3.613,0,0,0,38,46Z" fill="#838f9b"/>
        <path id="Trazado_1048443" data-name="Trazado 1048443" d="M58,44a2.006,2.006,0,0,1,2-2,2.015,2.015,0,0,1,2,2v9.67a4.024,4.024,0,0,1-.8,2.4L59,59v3H45V59l-2.2-2.93A4.117,4.117,0,0,1,42.01,54L42,46a2.006,2.006,0,0,1,2-2h2V32a2.006,2.006,0,0,1,2-2,2.015,2.015,0,0,1,2,2v8a2.006,2.006,0,0,1,2-2,2.015,2.015,0,0,1,2,2v2a2.006,2.006,0,0,1,2-2,2.015,2.015,0,0,1,2,2Z" fill="#f0d0b4"/>
        <path id="Trazado_1048444" data-name="Trazado 1048444" d="M18,44h2a2.006,2.006,0,0,1,2,2v7.67c0,.11,0,.22-.01.33a4.152,4.152,0,0,1-.79,2.07L19,59v3H5V59L2.8,56.07a4.024,4.024,0,0,1-.8-2.4V44a2,2,0,0,1,2-2,2.015,2.015,0,0,1,2,2V42a2.015,2.015,0,0,1,2-2,2.006,2.006,0,0,1,2,2V40a2.015,2.015,0,0,1,2-2,2.006,2.006,0,0,1,2,2V32a2.015,2.015,0,0,1,2-2,2.006,2.006,0,0,1,2,2V44Z" fill="#f0d0b4"/>
        <path id="Trazado_1048445" data-name="Trazado 1048445" d="M60,10V32H56V11a1,1,0,0,0-1-1H43a12.957,12.957,0,0,0-2.62-4H56A4,4,0,0,1,60,10Z" fill="#aab2bd"/>
        <path id="Trazado_1048446" data-name="Trazado 1048446" d="M8,6H21.63A12.808,12.808,0,0,0,19,10H9a1,1,0,0,0-1,1V32H4V10A4,4,0,0,1,8,6Z" fill="#aab2bd"/>
        <path id="Trazado_1048447" data-name="Trazado 1048447" d="M56,11V32H50a2.015,2.015,0,0,0-2-2,2.006,2.006,0,0,0-2,2H18a2.006,2.006,0,0,0-2-2,2.015,2.015,0,0,0-2,2H8V11a1,1,0,0,1,1-1H19a13,13,0,0,0,9.52,17.76A12.642,12.642,0,0,0,31,28,13,13,0,0,0,43,10H55A1,1,0,0,1,56,11Z" fill="#69d6f4"/>
      </g>
      <g id="Grupo_1202769" data-name="Grupo 1202769">
        <path id="Trazado_1048448" data-name="Trazado 1048448" d="M61,41.184V10a5.006,5.006,0,0,0-5-5H40.779A13.954,13.954,0,0,0,21.221,5H8a5.006,5.006,0,0,0-5,5V41.184A3,3,0,0,0,1,44v9.667a5.023,5.023,0,0,0,1,3l2,2.667V63H20V59.333l2-2.666A4.988,4.988,0,0,0,22.8,55H41.193A4.985,4.985,0,0,0,42,56.666l2,2.667V63H60V59.333l2-2.666a5.028,5.028,0,0,0,1-3V44A3,3,0,0,0,61,41.184ZM56,39a2.984,2.984,0,0,0-1.116.22A2.95,2.95,0,0,0,51,37.184V33h8v8.181c-.038.014-.079.02-.117.035A3,3,0,0,0,56,39ZM45.184,31H18.816a2.982,2.982,0,0,0-5.632,0H9V11h8.59a14,14,0,1,0,26.82,0H55V31H50.816a2.982,2.982,0,0,0-5.632,0ZM9.116,39.22a2.974,2.974,0,0,0-4,2c-.038-.015-.079-.022-.117-.035V33h8v4.184A2.95,2.95,0,0,0,9.116,39.22ZM59,10V31H57V11a2,2,0,0,0-2-2H43.63a14.057,14.057,0,0,0-1.157-2H56A3,3,0,0,1,59,10ZM31,3A12,12,0,1,1,19,15,12.013,12.013,0,0,1,31,3ZM8,7H19.527A13.962,13.962,0,0,0,18.37,9H9a2,2,0,0,0-2,2V31H5V10A3,3,0,0,1,8,7ZM21,53.667a3.018,3.018,0,0,1-.6,1.8l-2.4,3.2V61H6V58.667l-2.4-3.2a3.013,3.013,0,0,1-.6-1.8V44a1,1,0,0,1,1-1H4a1,1,0,0,1,1,1v6H7V42a1,1,0,0,1,2,0v8h2V40a1,1,0,0,1,2,0V50h2V32a1,1,0,0,1,2,0V43h0V53h2V45h1a1,1,0,0,1,1,1ZM20,43H19V33H45V43H44a2.993,2.993,0,0,0-2.815,2h-3.8l-.276.553A2.606,2.606,0,0,1,34.764,47H29.237A2.6,2.6,0,0,1,26.9,45.553L26.618,45h-3.8A3,3,0,0,0,20,43Zm3,4h2.431a4.592,4.592,0,0,0,3.806,2h5.527a4.593,4.593,0,0,0,3.806-2H41l.014,6H23Zm38,6.667a3.018,3.018,0,0,1-.6,1.8l-2.4,3.2V61H46V58.667l-2.4-3.2A2.967,2.967,0,0,1,43.015,54L43,46a1,1,0,0,1,1-1h1v8h2V43h0V32a1,1,0,0,1,2,0V50h2V40a1,1,0,0,1,2,0V50h2V42a1,1,0,0,1,2,0v8h2V44a1,1,0,0,1,1-1h0a1,1,0,0,1,1,1Z"/>
        <rect id="Rectángulo_417947" data-name="Rectángulo 417947" width="2" height="2" transform="translate(21 35)"/>
        <rect id="Rectángulo_417948" data-name="Rectángulo 417948" width="2" height="2" transform="translate(21 39)"/>
        <rect id="Rectángulo_417949" data-name="Rectángulo 417949" width="2" height="2" transform="translate(25 35)"/>
        <rect id="Rectángulo_417950" data-name="Rectángulo 417950" width="2" height="2" transform="translate(25 39)"/>
        <rect id="Rectángulo_417951" data-name="Rectángulo 417951" width="2" height="2" transform="translate(29 35)"/>
        <rect id="Rectángulo_417952" data-name="Rectángulo 417952" width="2" height="2" transform="translate(29 39)"/>
        <rect id="Rectángulo_417953" data-name="Rectángulo 417953" width="2" height="2" transform="translate(33 35)"/>
        <rect id="Rectángulo_417954" data-name="Rectángulo 417954" width="2" height="2" transform="translate(33 39)"/>
        <rect id="Rectángulo_417955" data-name="Rectángulo 417955" width="6" height="2" transform="translate(29 43)"/>
        <rect id="Rectángulo_417956" data-name="Rectángulo 417956" width="2" height="2" transform="translate(37 35)"/>
        <rect id="Rectángulo_417957" data-name="Rectángulo 417957" width="2" height="2" transform="translate(37 39)"/>
        <rect id="Rectángulo_417958" data-name="Rectángulo 417958" width="2" height="2" transform="translate(41 35)"/>
        <rect id="Rectángulo_417959" data-name="Rectángulo 417959" width="2" height="2" transform="translate(41 39)"/>
        <rect id="Rectángulo_417960" data-name="Rectángulo 417960" width="20.396" height="2" transform="translate(28.017 24.804) rotate(-78.679)"/>
        <path id="Trazado_1048449" data-name="Trazado 1048449" d="M35.707,19.707,40.414,15l-4.707-4.707-1.414,1.414L37.586,15l-3.293,3.293Z"/>
        <path id="Trazado_1048450" data-name="Trazado 1048450" d="M26.293,19.707l1.414-1.414L24.414,15l3.293-3.293-1.414-1.414L21.586,15Z"/>
      </g>
    </g>
  </g>
</svg>
